<?xml version="1.0" standalone="no"?>
 <!DOCTYPE svg PUBLIC "-//W3C//DTD SVG 1.1//EN" 
 "http://www.w3.org/Graphics/SVG/1.1/DTD/svg11.dtd"> 
<svg xmlns="http://www.w3.org/2000/svg" version="1.1" 
    width="29.7002cm" height="21.0007cm" viewBox="0 0 116930 82680 ">
<title>SVG Picture created as funknetzwerkuhr-F.Fab.svg date 2018/08/12 19:15:22 </title>
  <desc>Picture generated by PCBNEW </desc>
<g style="fill:#000000; fill-opacity:1;stroke:#000000; stroke-opacity:1;
stroke-linecap:round; stroke-linejoin:round; "
 transform="translate(0 0) scale(1 1)">
</g>
<g style="fill:#000000; fill-opacity:0.0; 
stroke:#000000; stroke-width:-0.000393701; stroke-opacity:1; 
stroke-linecap:round; stroke-linejoin:round;">
</g>
<g style="fill:#000000; fill-opacity:1.0; 
stroke:#000000; stroke-width:39.3701; stroke-opacity:1; 
stroke-linecap:round; stroke-linejoin:round;">
<rect x="17655.5" y="4921.26" width="77891.5" height="68891.6" rx="0" />
</g>
<g style="fill:#FFFFFF; fill-opacity:1.0; 
stroke:#FFFFFF; stroke-width:39.3701; stroke-opacity:1; 
stroke-linecap:round; stroke-linejoin:round;">
</g>
<g style="fill:#FFFFFF; fill-opacity:0.0; 
stroke:#FFFFFF; stroke-width:59.0551; stroke-opacity:1; 
stroke-linecap:round; stroke-linejoin:round;">
<circle cx="84010" cy="67029.5" r="656.168" /> 
<path d="M83025 67029
L84994 67029
" />
<path d="M84009 66045
L84009 68013
" />
<circle cx="58035.8" cy="67004.6" r="656.168" /> 
<path d="M57051 67004
L59020 67004
" />
<path d="M58035 66020
L58035 67988
" />
<circle cx="83962.8" cy="7997.71" r="656.168" /> 
<path d="M82978 7997
L84947 7997
" />
<path d="M83962 7013
L83962 8981
" />
<circle cx="57999.8" cy="7981.56" r="656.168" /> 
<path d="M57015 7981
L58984 7981
" />
<path d="M57999 6997
L57999 8965
" />
<path d="M86899 64492
L55403 64492
" />
<path d="M55403 13311
L55403 64492
" />
<path d="M55403 13311
L86899 13311
" />
<path d="M86899 13311
L86899 64492
" />
<circle cx="52272.5" cy="55554.5" r="656.168" /> 
<path d="M51288 55554
L53256 55554
" />
<path d="M52272 54570
L52272 56538
" />
<circle cx="23622" cy="7874.02" r="656.168" /> 
<path d="M22637 7874
L24606 7874
" />
<path d="M23622 6889
L23622 8858
" />
<circle cx="47111" cy="7874.02" r="656.168" /> 
<path d="M46126 7874
L48095 7874
" />
<path d="M47111 6889
L47111 8858
" />
<circle cx="23622" cy="70860.1" r="656.168" /> 
<path d="M22637 70860
L24606 70860
" />
<path d="M23622 69875
L23622 71844
" />
<path d="M19653 14061
L51149 14061
" />
<path d="M19653 14061
L19653 65242
" />
<path d="M51149 65242
L19653 65242
" />
<path d="M51149 14061
L51149 65242
" />
</g>
<g style="fill:#FFFFFF; fill-opacity:0.0; 
stroke:#FFFFFF; stroke-width:39.3701; stroke-opacity:1; 
stroke-linecap:round; stroke-linejoin:round;">
<path d="M66034 28064
L66034 27435
" />
<path d="M66034 27435
L67294 27435
" />
<path d="M67294 27435
L67294 28064
" />
<path d="M67294 28064
L66034 28064
" />
<path d="M79189 49625
L79189 50767
" />
<path d="M79189 50767
L78496 50767
" />
<path d="M78496 49803
L78496 50767
" />
<path d="M79189 49625
L78673 49625
" />
<path d="M78496 49803
L78673 49625
" />
<path d="M74129 49856
L74307 49679
" />
<path d="M74822 49679
L74307 49679
" />
<path d="M74129 49856
L74129 50820
" />
<path d="M74822 50820
L74129 50820
" />
<path d="M74822 49679
L74822 50820
" />
<path d="M74679 48179
L74679 49320
" />
<path d="M74679 49320
L73986 49320
" />
<path d="M73986 48356
L73986 49320
" />
<path d="M74679 48179
L74163 48179
" />
<path d="M73986 48356
L74163 48179
" />
<path d="M78486 47803
L78663 47625
" />
<path d="M79179 47625
L78663 47625
" />
<path d="M78486 47803
L78486 48767
" />
<path d="M79179 48767
L78486 48767
" />
<path d="M79179 47625
L79179 48767
" />
</g>
<g style="fill:#FFFFFF; fill-opacity:0.0; 
stroke:#FFFFFF; stroke-width:80; stroke-opacity:1; 
stroke-linecap:round; stroke-linejoin:round;">
<path d="M70990 24540
L70990 21959
" />
<path d="M70950 24260
L70670 24260
" />
<path d="M70670 24260
L70490 24080
" />
<path d="M70490 24080
L70490 22420
" />
<path d="M70490 22420
L70670 22240
" />
<path d="M70670 22240
L70950 22240
" />
<path d="M70950 22240
L70950 24260
" />
</g>
<g style="fill:#FFFFFF; fill-opacity:1.0; 
stroke:#FFFFFF; stroke-width:0; stroke-opacity:1; 
stroke-linecap:round; stroke-linejoin:round;">
<polyline style="fill-rule:evenodd;"
points="74530,24320
74530,23980
73390,23980
73390,24320
74530,24320
" /> 
<polyline style="fill-rule:evenodd;"
points="74530,22520
74530,22180
73390,22180
73390,22520
74530,22520
" /> 
<polyline style="fill-rule:evenodd;"
points="70950,24260
70670,24260
70490,24080
70490,22420
70670,22240
70950,22240
70950,24260
" /> 
</g>
<g style="fill:#FFFFFF; fill-opacity:1.0; 
stroke:#FFFFFF; stroke-width:39.3701; stroke-opacity:1; 
stroke-linecap:round; stroke-linejoin:round;">
</g>
<g style="fill:#FFFFFF; fill-opacity:0.0; 
stroke:#FFFFFF; stroke-width:39.3701; stroke-opacity:1; 
stroke-linecap:round; stroke-linejoin:round;">
<path d="M59427 18096
L64151 18096
" />
<path d="M59427 13372
L64151 13372
" />
<path d="M64151 13372
L64151 18096
" />
<path d="M59427 13372
L59427 18096
" />
<path d="M71927 13372
L71927 18096
" />
<path d="M76651 13372
L76651 18096
" />
<path d="M71927 13372
L76651 13372
" />
<path d="M71927 18096
L76651 18096
" />
<circle cx="76757.9" cy="22250" r="984.252" /> 
<path d="M77597 22678
L77401 22678
" />
<path d="M77499 22776
L77499 22579
" />
<path d="M72500 25223
L72500 25420
" />
<path d="M72402 25321
L72598 25321
" />
<circle cx="73242.1" cy="25750" r="984.252" /> 
<circle cx="68307.9" cy="52200" r="984.252" /> 
<path d="M69147 52628
L68951 52628
" />
<path d="M69049 52726
L69049 52529
" />
<path d="M73114 59742
L74885 59742
" />
<path d="M74885 59742
L74885 55057
" />
<path d="M74885 55057
L73114 55057
" />
<path d="M73114 55057
L73114 59742
" />
<path d="M74000 60400
L74000 59742
" />
<path d="M74000 54400
L74000 55057
" />
<path d="M62600 63780
L62321 61533
" />
<path d="M64244 63340
L62878 61533
" />
<path d="M65447 62136
L63361 61254
" />
<path d="M65887 60493
L63639 60772
" />
<path d="M65446 58849
L63639 60215
" />
<path d="M64243 57646
L63360 59732
" />
<path d="M62599 57206
L62878 59454
" />
<path d="M60956 57646
L62321 59454
" />
<path d="M59753 58850
L61838 59732
" />
<path d="M59312 60493
L61560 60215
" />
<path d="M59753 62137
L61560 60772
" />
<path d="M60956 63340
L61839 61254
" />
<path d="M62600 63780
L62321 61533
" />
<circle cx="62600" cy="60493.7" r="1102.36" /> 
<circle cx="62600" cy="60493.7" r="3307.09" /> 
<path d="M65500 16559
L65500 15809
" />
<path d="M65500 15809
L70500 15809
" />
<path d="M70500 15809
L70500 16809
" />
<path d="M70500 16809
L65750 16809
" />
<path d="M65750 16809
L65500 16559
" />
<path d="M65874 17525
L65874 16809
" />
<path d="M65874 17525
L66125 17525
" />
<path d="M66125 17525
L66125 16809
" />
<path d="M65874 15809
L65874 13447
" />
<path d="M65874 13447
L66125 13447
" />
<path d="M66125 15809
L66125 13447
" />
<path d="M66874 17525
L66874 16809
" />
<path d="M66874 17525
L67125 17525
" />
<path d="M67125 17525
L67125 16809
" />
<path d="M66874 15809
L66874 13447
" />
<path d="M66874 13447
L67125 13447
" />
<path d="M67125 15809
L67125 13447
" />
<path d="M67874 17525
L67874 16809
" />
<path d="M67874 17525
L68125 17525
" />
<path d="M68125 17525
L68125 16809
" />
<path d="M67874 15809
L67874 13447
" />
<path d="M67874 13447
L68125 13447
" />
<path d="M68125 15809
L68125 13447
" />
<path d="M68874 17525
L68874 16809
" />
<path d="M68874 17525
L69125 17525
" />
<path d="M69125 17525
L69125 16809
" />
<path d="M68874 15809
L68874 13447
" />
<path d="M68874 13447
L69125 13447
" />
<path d="M69125 15809
L69125 13447
" />
<path d="M69874 17525
L69874 16809
" />
<path d="M69874 17525
L70125 17525
" />
<path d="M70125 17525
L70125 16809
" />
<path d="M69874 15809
L69874 13447
" />
<path d="M69874 13447
L70125 13447
" />
<path d="M70125 15809
L70125 13447
" />
<path d="M85431 51748
L84681 51748
" />
<path d="M84681 51748
L84431 51498
" />
<path d="M84431 51498
L84431 25748
" />
<path d="M84431 25748
L85431 25748
" />
<path d="M85431 25748
L85431 51748
" />
<path d="M82606 34513
L83393 34513
" />
<path d="M82606 34986
L82606 34513
" />
<path d="M83393 34986
L82606 34986
" />
<path d="M83393 34513
L83393 34986
" />
<path d="M83393 32513
L83393 32986
" />
<path d="M83393 32986
L82606 32986
" />
<path d="M82606 32986
L82606 32513
" />
<path d="M82606 32513
L83393 32513
" />
</g>
<g style="fill:#FFFFFF; fill-opacity:0.0; 
stroke:#FFFFFF; stroke-width:19.685; stroke-opacity:1; 
stroke-linecap:round; stroke-linejoin:round;">
<path d="M55743 27946
L55743 21647
" />
<path d="M65192 27946
L55743 27946
" />
<path d="M65192 21647
L65192 27946
" />
<path d="M55743 21644
L65192 21644
" />
</g>
<g style="fill:#FFFFFF; fill-opacity:0.0; 
stroke:#FFFFFF; stroke-width:39.3701; stroke-opacity:1; 
stroke-linecap:round; stroke-linejoin:round;">
<path d="M57272 30742
L57272 31254
" />
<path d="M57036 31057
L57036 30742
" />
<path d="M56800 30742
L56800 31057
" />
<path d="M56563 31057
L56563 30742
" />
<path d="M56327 30545
L56327 31057
" />
<path d="M57508 30545
L57508 31254
" />
<path d="M57508 31254
L57272 31254
" />
<path d="M57272 30742
L57036 30742
" />
<path d="M57036 31057
L56800 31057
" />
<path d="M56800 30742
L56563 30742
" />
<path d="M56563 31057
L56327 31057
" />
<path d="M56327 30545
L56091 30545
" />
<path d="M56091 30545
L56091 31254
" />
<path d="M55973 31411
L55973 30388
" />
<path d="M57626 30388
L57626 31411
" />
<path d="M55986.7 31433 A972.369 972.369 0.0 0 0 57626.8 31411.8 " />
<path d="M57613.3 30367 A972.369 972.369 0.0 0 0 55973.2 30388.2 " />
<path d="M61436 29202
L61436 29990
" />
<path d="M60963 29202
L61436 29202
" />
<path d="M60963 29990
L60963 29202
" />
<path d="M61436 29990
L60963 29990
" />
<path d="M58513 31197
L58513 30409
" />
<path d="M58986 31197
L58513 31197
" />
<path d="M58986 30409
L58986 31197
" />
<path d="M58513 30409
L58986 30409
" />
<path d="M59986 31240
L59513 31240
" />
<path d="M59513 31240
L59513 30452
" />
<path d="M59513 30452
L59986 30452
" />
<path d="M59986 30452
L59986 31240
" />
<path d="M72952 47263
L73740 47263
" />
<path d="M72952 47736
L72952 47263
" />
<path d="M73740 47736
L72952 47736
" />
<path d="M73740 47263
L73740 47736
" />
<path d="M77329 50590
L76857 50590
" />
<path d="M76857 50590
L76857 49803
" />
<path d="M76857 49803
L77329 49803
" />
<path d="M77329 49803
L77329 50590
" />
<path d="M75847 48590
L75847 47803
" />
<path d="M76319 48590
L75847 48590
" />
<path d="M76319 47803
L76319 48590
" />
<path d="M75847 47803
L76319 47803
" />
<path d="M81240 48013
L81240 48486
" />
<path d="M81240 48486
L80452 48486
" />
<path d="M80452 48486
L80452 48013
" />
<path d="M80452 48013
L81240 48013
" />
<path d="M77319 48590
L76847 48590
" />
<path d="M76847 48590
L76847 47803
" />
<path d="M76847 47803
L77319 47803
" />
<path d="M77319 47803
L77319 48590
" />
<path d="M71952 49763
L72740 49763
" />
<path d="M71952 50236
L71952 49763
" />
<path d="M72740 50236
L71952 50236
" />
<path d="M72740 49763
L72740 50236
" />
<path d="M75857 50590
L75857 49803
" />
<path d="M76329 50590
L75857 50590
" />
<path d="M76329 49803
L76329 50590
" />
<path d="M75857 49803
L76329 49803
" />
<path d="M81190 50013
L81190 50486
" />
<path d="M81190 50486
L80402 50486
" />
<path d="M80402 50486
L80402 50013
" />
<path d="M80402 50013
L81190 50013
" />
<path d="M63492 51203
L62507 51203
" />
<path d="M62507 51203
L62507 53565
" />
<path d="M62507 53565
L63492 53565
" />
<path d="M63492 53565
L63492 51203
" />
<path d="M80325 56704
L78474 56704
" />
<path d="M78474 56704
L78474 63200
" />
<path d="M78474 63200
L80325 63200
" />
<path d="M80325 63200
L80325 56704
" />
<path d="M60702 56345
L60702 56030
" />
<path d="M60860 56187
L60545 56187
" />
<circle cx="59511" cy="55500" r="1574.8" /> 
<circle cx="77500" cy="54561" r="1574.8" /> 
<path d="M78187 53211
L78187 53526
" />
<path d="M78345 53369
L78030 53369
" />
<path d="M49681 52498
L48931 52498
" />
<path d="M48931 52498
L48681 52248
" />
<path d="M48681 52248
L48681 26498
" />
<path d="M48681 26498
L49681 26498
" />
<path d="M49681 26498
L49681 52498
" />
<path d="M74426 62911
L76474 62911
" />
<path d="M76474 62911
L76474 61888
" />
<path d="M76474 61888
L74426 61888
" />
<path d="M74426 61888
L74426 62911
" />
<path d="M75706 62399
L76061 62399
" />
<path d="M75253 62399
L74860 62399
" />
<path d="M75706 62714
L75706 62084
" />
<path d="M75253 62104
L75253 62714
" />
<path d="M75706 62399
L75253 62104
" />
<path d="M75706 62399
L75253 62714
" />
<path d="M31954 33188
L31561 32795
" />
<path d="M32938 31811
L31561 31811
" />
<path d="M31561 31811
L31561 33188
" />
<path d="M31561 33188
L32938 33188
" />
<path d="M32938 33188
L32938 31811
" />
<circle cx="32250" cy="32500" r="590.551" /> 
<circle cx="32250" cy="23500" r="590.551" /> 
<path d="M32938 24188
L32938 22811
" />
<path d="M31561 24188
L32938 24188
" />
<path d="M31561 22811
L31561 24188
" />
<path d="M32938 22811
L31561 22811
" />
<path d="M31954 24188
L31561 23795
" />
<circle cx="32204.7" cy="47169.3" r="590.551" /> 
<path d="M32893 47858
L32893 46480
" />
<path d="M31515 47858
L32893 47858
" />
<path d="M31515 46480
L31515 47858
" />
<path d="M32893 46480
L31515 46480
" />
<path d="M31909 47858
L31515 47464
" />
<path d="M31858 56687
L31464 56293
" />
<path d="M32842 55309
L31464 55309
" />
<path d="M31464 55309
L31464 56687
" />
<path d="M31464 56687
L32842 56687
" />
<path d="M32842 56687
L32842 55309
" />
<circle cx="32153.5" cy="55998" r="590.551" /> 
</g> 
</svg>
