M48
; DRILL file {KiCad (5.1.2-1)-1} date 2019 May 03, Friday 14:40:13
; FORMAT={-:-/ absolute / inch / decimal}
; #@! TF.CreationDate,2019-05-03T14:40:13+02:00
; #@! TF.GenerationSoftware,Kicad,Pcbnew,(5.1.2-1)-1
; #@! TF.FileFunction,Plated,1,2,PTH
FMAT,2
INCH
T1C0.0118
T2C0.0300
T3C0.0315
T4C0.0320
T5C0.0394
T6C0.0433
T7C0.0591
T8C0.0630
T9C0.1181
%
G90
G05
T1
X2.09Y-4.365
X2.1Y-4.165
X2.14Y-3.99
X2.165Y-3.865
X2.235Y-2.375
X2.255Y-2.4
X2.275Y-2.425
X2.315Y-2.24
X2.355Y-2.95
X2.3552Y-3.1096
X2.405Y-4.165
X2.4137Y-4.3213
X2.415Y-4.4
X2.42Y-2.31
X2.49Y-3.155
X2.505Y-2.465
X2.555Y-3.885
X2.555Y-4.085
X2.77Y-4.4
X2.79Y-2.375
X2.8Y-3.99
X2.84Y-2.24
X2.89Y-2.39
X2.89Y-3.42
X2.95Y-2.43
X3.0Y-4.165
X3.02Y-3.59
X3.04Y-2.36
X3.08Y-2.495
X3.18Y-4.595
X3.2Y-4.085
X3.24Y-2.95
X3.24Y-3.11
X3.3741Y-3.1459
X3.47Y-4.125
X3.47Y-4.175
X3.47Y-4.22
X3.495Y-2.31
X3.605Y-2.685
X3.675Y-2.985
X3.68Y-3.695
X3.72Y-3.695
X3.76Y-3.695
X3.865Y-2.36
X3.915Y-2.24
X3.965Y-2.395
X4.015Y-2.43
X4.065Y-2.68
X4.11Y-2.755
X4.115Y-2.36
X4.155Y-2.495
X4.41Y-2.6378
X4.465Y-3.575
X4.495Y-3.11
X4.5Y-2.95
X4.585Y-2.3
X4.6309Y-3.1459
X4.6309Y-3.1459
X4.87Y-3.295
X4.96Y-2.355
X5.01Y-2.24
X5.03Y-4.41
X5.035Y-3.335
X5.06Y-2.365
X5.11Y-2.39
X5.14Y-4.51
X5.245Y-3.58
X5.25Y-2.495
X5.385Y-2.95
X5.385Y-3.11
X5.43Y-4.11
X5.48Y-4.11
X5.5201Y-3.1459
X5.53Y-4.11
X5.66Y-4.11
X5.705Y-4.11
X5.755Y-4.11
X5.765Y-3.57
X5.765Y-3.605
X5.765Y-3.64
X7.4872Y-6.0024
T2
X3.8386Y-2.8346
X4.0354Y-2.8346
X3.8386Y-3.2283
X4.0354Y-3.2283
T3
X3.0807Y-2.8543
X3.0807Y-3.0315
X3.0807Y-3.2087
X3.1496Y-2.7165
X3.1496Y-3.3465
X3.3071Y-2.6772
X3.3071Y-3.3858
X3.4646Y-2.7165
X3.4646Y-3.3465
X3.5335Y-2.8543
X3.5335Y-3.0315
X3.5335Y-3.2087
X4.395Y-3.7622
X4.395Y-3.9
X4.3406Y-2.8543
X4.3406Y-3.0315
X4.3406Y-3.2087
X4.4094Y-2.7165
X4.4094Y-3.3465
X4.5669Y-2.6772
X4.5669Y-3.3858
X4.7244Y-2.7165
X4.7244Y-3.3465
X4.7933Y-2.8543
X4.7933Y-3.0315
X4.7933Y-3.2087
X3.34Y-3.7966
X3.34Y-3.895
X3.937Y-3.9198
X4.0Y-3.795
X4.0Y-3.8934
X4.063Y-3.7686
X5.2264Y-2.8543
X5.2264Y-3.0315
X5.2264Y-3.2087
X5.2953Y-2.7165
X5.2953Y-3.3465
X5.4528Y-2.6772
X5.4528Y-3.3858
X5.6102Y-2.7165
X5.6102Y-3.3465
X5.6791Y-2.8543
X5.6791Y-3.0315
X5.6791Y-3.2087
X2.1949Y-2.8543
X2.1949Y-3.0315
X2.1949Y-3.2087
X2.2638Y-2.7165
X2.2638Y-3.3465
X2.4213Y-2.6772
X2.4213Y-3.3858
X2.5787Y-2.7165
X2.5787Y-3.3465
X2.6476Y-2.8543
X2.6476Y-3.0315
X2.6476Y-3.2087
X2.795Y-5.08
X2.895Y-5.08
T4
X4.325Y-4.8781
X4.325Y-5.075
X4.8171Y-4.8781
X4.8171Y-5.075
X3.1329Y-4.8781
X3.1329Y-5.075
X3.625Y-4.8781
X3.625Y-5.075
T5
X3.825Y-4.895
X3.925Y-4.895
X4.025Y-4.895
X4.125Y-4.895
X2.32Y-4.895
X2.42Y-4.895
X2.52Y-4.895
X2.62Y-4.895
X5.47Y-3.775
X5.57Y-3.775
T6
X4.67Y-3.825
X5.2606Y-3.825
T7
X3.91Y-4.355
X4.0899Y-4.355
T8
X5.53Y-4.44
X5.7072Y-4.44
T9
X2.1063Y-2.3031
X2.1063Y-5.1772
X5.764Y-2.305
X5.7677Y-5.1772
T0
M30
