%TF.GenerationSoftware,KiCad,Pcbnew,(5.1.2-1)-1*%
%TF.CreationDate,2019-05-03T14:38:19+02:00*%
%TF.ProjectId,funknetzwerkuhr,66756e6b-6e65-4747-9a77-65726b756872,rev?*%
%TF.SameCoordinates,Original*%
%TF.FileFunction,Soldermask,Bot*%
%TF.FilePolarity,Negative*%
%FSLAX46Y46*%
G04 Gerber Fmt 4.6, Leading zero omitted, Abs format (unit mm)*
G04 Created by KiCad (PCBNEW (5.1.2-1)-1) date 2019-05-03 14:38:19*
%MOMM*%
%LPD*%
G04 APERTURE LIST*
%ADD10C,0.150000*%
G04 APERTURE END LIST*
D10*
X150000000Y-55000000D02*
X150000000Y-135000000D01*
X150000000Y-55000000D02*
X50000000Y-55000000D01*
X50000000Y-135000000D02*
X50000000Y-55000000D01*
X150000000Y-135000000D02*
X50000000Y-135000000D01*
G36*
X73760290Y-128057619D02*
G01*
X73824689Y-128070429D01*
X74006678Y-128145811D01*
X74170463Y-128255249D01*
X74309751Y-128394537D01*
X74419189Y-128558322D01*
X74494571Y-128740311D01*
X74494571Y-128740312D01*
X74527330Y-128905000D01*
X74533000Y-128933509D01*
X74533000Y-129130491D01*
X74494571Y-129323689D01*
X74419189Y-129505678D01*
X74309751Y-129669463D01*
X74170463Y-129808751D01*
X74006678Y-129918189D01*
X73824689Y-129993571D01*
X73760290Y-130006381D01*
X73631493Y-130032000D01*
X73434507Y-130032000D01*
X73305710Y-130006381D01*
X73241311Y-129993571D01*
X73059322Y-129918189D01*
X72895537Y-129808751D01*
X72756249Y-129669463D01*
X72646811Y-129505678D01*
X72571429Y-129323689D01*
X72533000Y-129130491D01*
X72533000Y-128933509D01*
X72538671Y-128905000D01*
X72571429Y-128740312D01*
X72571429Y-128740311D01*
X72646811Y-128558322D01*
X72756249Y-128394537D01*
X72895537Y-128255249D01*
X73059322Y-128145811D01*
X73241311Y-128070429D01*
X73305710Y-128057619D01*
X73434507Y-128032000D01*
X73631493Y-128032000D01*
X73760290Y-128057619D01*
X73760290Y-128057619D01*
G37*
G36*
X71220290Y-128057619D02*
G01*
X71284689Y-128070429D01*
X71466678Y-128145811D01*
X71630463Y-128255249D01*
X71769751Y-128394537D01*
X71879189Y-128558322D01*
X71954571Y-128740311D01*
X71954571Y-128740312D01*
X71987330Y-128905000D01*
X71993000Y-128933509D01*
X71993000Y-129130491D01*
X71954571Y-129323689D01*
X71879189Y-129505678D01*
X71769751Y-129669463D01*
X71630463Y-129808751D01*
X71466678Y-129918189D01*
X71284689Y-129993571D01*
X71220290Y-130006381D01*
X71091493Y-130032000D01*
X70894507Y-130032000D01*
X70765710Y-130006381D01*
X70701311Y-129993571D01*
X70519322Y-129918189D01*
X70355537Y-129808751D01*
X70216249Y-129669463D01*
X70106811Y-129505678D01*
X70031429Y-129323689D01*
X69993000Y-129130491D01*
X69993000Y-128933509D01*
X69998671Y-128905000D01*
X70031429Y-128740312D01*
X70031429Y-128740311D01*
X70106811Y-128558322D01*
X70216249Y-128394537D01*
X70355537Y-128255249D01*
X70519322Y-128145811D01*
X70701311Y-128070429D01*
X70765710Y-128057619D01*
X70894507Y-128032000D01*
X71091493Y-128032000D01*
X71220290Y-128057619D01*
X71220290Y-128057619D01*
G37*
G36*
X123223900Y-127856789D02*
G01*
X123424394Y-127917608D01*
X123609159Y-128016367D01*
X123609162Y-128016369D01*
X123609163Y-128016370D01*
X123771118Y-128149282D01*
X123904030Y-128311237D01*
X123904033Y-128311241D01*
X124002792Y-128496006D01*
X124063611Y-128696500D01*
X124084146Y-128905000D01*
X124063611Y-129113500D01*
X124002792Y-129313994D01*
X123904033Y-129498759D01*
X123904031Y-129498762D01*
X123904030Y-129498763D01*
X123771118Y-129660718D01*
X123609163Y-129793630D01*
X123609159Y-129793633D01*
X123424394Y-129892392D01*
X123223900Y-129953211D01*
X123067651Y-129968600D01*
X121642349Y-129968600D01*
X121486100Y-129953211D01*
X121285606Y-129892392D01*
X121100841Y-129793633D01*
X121100837Y-129793630D01*
X120938882Y-129660718D01*
X120805970Y-129498763D01*
X120805969Y-129498762D01*
X120805967Y-129498759D01*
X120707208Y-129313994D01*
X120646389Y-129113500D01*
X120625854Y-128905000D01*
X120646389Y-128696500D01*
X120707208Y-128496006D01*
X120805967Y-128311241D01*
X120805970Y-128311237D01*
X120938882Y-128149282D01*
X121100837Y-128016370D01*
X121100838Y-128016369D01*
X121100841Y-128016367D01*
X121285606Y-127917608D01*
X121486100Y-127856789D01*
X121642349Y-127841400D01*
X123067651Y-127841400D01*
X123223900Y-127856789D01*
X123223900Y-127856789D01*
G37*
G36*
X110723900Y-127856789D02*
G01*
X110924394Y-127917608D01*
X111109159Y-128016367D01*
X111109162Y-128016369D01*
X111109163Y-128016370D01*
X111271118Y-128149282D01*
X111404030Y-128311237D01*
X111404033Y-128311241D01*
X111502792Y-128496006D01*
X111563611Y-128696500D01*
X111584146Y-128905000D01*
X111563611Y-129113500D01*
X111502792Y-129313994D01*
X111404033Y-129498759D01*
X111404031Y-129498762D01*
X111404030Y-129498763D01*
X111271118Y-129660718D01*
X111109163Y-129793630D01*
X111109159Y-129793633D01*
X110924394Y-129892392D01*
X110723900Y-129953211D01*
X110567651Y-129968600D01*
X109142349Y-129968600D01*
X108986100Y-129953211D01*
X108785606Y-129892392D01*
X108600841Y-129793633D01*
X108600837Y-129793630D01*
X108438882Y-129660718D01*
X108305970Y-129498763D01*
X108305969Y-129498762D01*
X108305967Y-129498759D01*
X108207208Y-129313994D01*
X108146389Y-129113500D01*
X108125854Y-128905000D01*
X108146389Y-128696500D01*
X108207208Y-128496006D01*
X108305967Y-128311241D01*
X108305970Y-128311237D01*
X108438882Y-128149282D01*
X108600837Y-128016370D01*
X108600838Y-128016369D01*
X108600841Y-128016367D01*
X108785606Y-127917608D01*
X108986100Y-127856789D01*
X109142349Y-127841400D01*
X110567651Y-127841400D01*
X110723900Y-127856789D01*
X110723900Y-127856789D01*
G37*
G36*
X92943900Y-127856789D02*
G01*
X93144394Y-127917608D01*
X93329159Y-128016367D01*
X93329162Y-128016369D01*
X93329163Y-128016370D01*
X93491118Y-128149282D01*
X93624030Y-128311237D01*
X93624033Y-128311241D01*
X93722792Y-128496006D01*
X93783611Y-128696500D01*
X93804146Y-128905000D01*
X93783611Y-129113500D01*
X93722792Y-129313994D01*
X93624033Y-129498759D01*
X93624031Y-129498762D01*
X93624030Y-129498763D01*
X93491118Y-129660718D01*
X93329163Y-129793630D01*
X93329159Y-129793633D01*
X93144394Y-129892392D01*
X92943900Y-129953211D01*
X92787651Y-129968600D01*
X91362349Y-129968600D01*
X91206100Y-129953211D01*
X91005606Y-129892392D01*
X90820841Y-129793633D01*
X90820837Y-129793630D01*
X90658882Y-129660718D01*
X90525970Y-129498763D01*
X90525969Y-129498762D01*
X90525967Y-129498759D01*
X90427208Y-129313994D01*
X90366389Y-129113500D01*
X90345854Y-128905000D01*
X90366389Y-128696500D01*
X90427208Y-128496006D01*
X90525967Y-128311241D01*
X90525970Y-128311237D01*
X90658882Y-128149282D01*
X90820837Y-128016370D01*
X90820838Y-128016369D01*
X90820841Y-128016367D01*
X91005606Y-127917608D01*
X91206100Y-127856789D01*
X91362349Y-127841400D01*
X92787651Y-127841400D01*
X92943900Y-127856789D01*
X92943900Y-127856789D01*
G37*
G36*
X80443900Y-127856789D02*
G01*
X80644394Y-127917608D01*
X80829159Y-128016367D01*
X80829162Y-128016369D01*
X80829163Y-128016370D01*
X80991118Y-128149282D01*
X81124030Y-128311237D01*
X81124033Y-128311241D01*
X81222792Y-128496006D01*
X81283611Y-128696500D01*
X81304146Y-128905000D01*
X81283611Y-129113500D01*
X81222792Y-129313994D01*
X81124033Y-129498759D01*
X81124031Y-129498762D01*
X81124030Y-129498763D01*
X80991118Y-129660718D01*
X80829163Y-129793630D01*
X80829159Y-129793633D01*
X80644394Y-129892392D01*
X80443900Y-129953211D01*
X80287651Y-129968600D01*
X78862349Y-129968600D01*
X78706100Y-129953211D01*
X78505606Y-129892392D01*
X78320841Y-129793633D01*
X78320837Y-129793630D01*
X78158882Y-129660718D01*
X78025970Y-129498763D01*
X78025969Y-129498762D01*
X78025967Y-129498759D01*
X77927208Y-129313994D01*
X77866389Y-129113500D01*
X77845854Y-128905000D01*
X77866389Y-128696500D01*
X77927208Y-128496006D01*
X78025967Y-128311241D01*
X78025970Y-128311237D01*
X78158882Y-128149282D01*
X78320837Y-128016370D01*
X78320838Y-128016369D01*
X78320841Y-128016367D01*
X78505606Y-127917608D01*
X78706100Y-127856789D01*
X78862349Y-127841400D01*
X80287651Y-127841400D01*
X80443900Y-127856789D01*
X80443900Y-127856789D01*
G37*
G36*
X61596707Y-123290596D02*
G01*
X61673836Y-123298193D01*
X61871762Y-123358233D01*
X61871765Y-123358234D01*
X62054170Y-123455732D01*
X62214055Y-123586945D01*
X62345268Y-123746830D01*
X62442766Y-123929235D01*
X62442767Y-123929238D01*
X62502807Y-124127164D01*
X62523080Y-124333000D01*
X62502807Y-124538836D01*
X62442767Y-124736762D01*
X62442766Y-124736765D01*
X62345268Y-124919170D01*
X62214055Y-125079055D01*
X62054170Y-125210268D01*
X61871765Y-125307766D01*
X61871762Y-125307767D01*
X61673836Y-125367807D01*
X61596707Y-125375403D01*
X61519580Y-125383000D01*
X61416420Y-125383000D01*
X61339293Y-125375403D01*
X61262164Y-125367807D01*
X61064238Y-125307767D01*
X61064235Y-125307766D01*
X60881830Y-125210268D01*
X60721945Y-125079055D01*
X60590732Y-124919170D01*
X60493234Y-124736765D01*
X60493233Y-124736762D01*
X60433193Y-124538836D01*
X60412920Y-124333000D01*
X60433193Y-124127164D01*
X60493233Y-123929238D01*
X60493234Y-123929235D01*
X60590732Y-123746830D01*
X60721945Y-123586945D01*
X60881830Y-123455732D01*
X61064235Y-123358234D01*
X61064238Y-123358233D01*
X61262164Y-123298193D01*
X61339293Y-123290596D01*
X61416420Y-123283000D01*
X61519580Y-123283000D01*
X61596707Y-123290596D01*
X61596707Y-123290596D01*
G37*
G36*
X59056707Y-123290596D02*
G01*
X59133836Y-123298193D01*
X59331762Y-123358233D01*
X59331765Y-123358234D01*
X59514170Y-123455732D01*
X59674055Y-123586945D01*
X59805268Y-123746830D01*
X59902766Y-123929235D01*
X59902767Y-123929238D01*
X59962807Y-124127164D01*
X59983080Y-124333000D01*
X59962807Y-124538836D01*
X59902767Y-124736762D01*
X59902766Y-124736765D01*
X59805268Y-124919170D01*
X59674055Y-125079055D01*
X59514170Y-125210268D01*
X59331765Y-125307766D01*
X59331762Y-125307767D01*
X59133836Y-125367807D01*
X59056707Y-125375403D01*
X58979580Y-125383000D01*
X58876420Y-125383000D01*
X58799293Y-125375403D01*
X58722164Y-125367807D01*
X58524238Y-125307767D01*
X58524235Y-125307766D01*
X58341830Y-125210268D01*
X58181945Y-125079055D01*
X58050732Y-124919170D01*
X57953234Y-124736765D01*
X57953233Y-124736762D01*
X57893193Y-124538836D01*
X57872920Y-124333000D01*
X57893193Y-124127164D01*
X57953233Y-123929238D01*
X57953234Y-123929235D01*
X58050732Y-123746830D01*
X58181945Y-123586945D01*
X58341830Y-123455732D01*
X58524235Y-123358234D01*
X58524238Y-123358233D01*
X58722164Y-123298193D01*
X58799293Y-123290596D01*
X58876420Y-123283000D01*
X58979580Y-123283000D01*
X59056707Y-123290596D01*
X59056707Y-123290596D01*
G37*
G36*
X64136707Y-123290596D02*
G01*
X64213836Y-123298193D01*
X64411762Y-123358233D01*
X64411765Y-123358234D01*
X64594170Y-123455732D01*
X64754055Y-123586945D01*
X64885268Y-123746830D01*
X64982766Y-123929235D01*
X64982767Y-123929238D01*
X65042807Y-124127164D01*
X65063080Y-124333000D01*
X65042807Y-124538836D01*
X64982767Y-124736762D01*
X64982766Y-124736765D01*
X64885268Y-124919170D01*
X64754055Y-125079055D01*
X64594170Y-125210268D01*
X64411765Y-125307766D01*
X64411762Y-125307767D01*
X64213836Y-125367807D01*
X64136707Y-125375403D01*
X64059580Y-125383000D01*
X63956420Y-125383000D01*
X63879293Y-125375403D01*
X63802164Y-125367807D01*
X63604238Y-125307767D01*
X63604235Y-125307766D01*
X63421830Y-125210268D01*
X63261945Y-125079055D01*
X63130732Y-124919170D01*
X63033234Y-124736765D01*
X63033233Y-124736762D01*
X62973193Y-124538836D01*
X62952920Y-124333000D01*
X62973193Y-124127164D01*
X63033233Y-123929238D01*
X63033234Y-123929235D01*
X63130732Y-123746830D01*
X63261945Y-123586945D01*
X63421830Y-123455732D01*
X63604235Y-123358234D01*
X63604238Y-123358233D01*
X63802164Y-123298193D01*
X63879293Y-123290596D01*
X63956420Y-123283000D01*
X64059580Y-123283000D01*
X64136707Y-123290596D01*
X64136707Y-123290596D01*
G37*
G36*
X67598000Y-125383000D02*
G01*
X65498000Y-125383000D01*
X65498000Y-123283000D01*
X67598000Y-123283000D01*
X67598000Y-125383000D01*
X67598000Y-125383000D01*
G37*
G36*
X97283707Y-123290596D02*
G01*
X97360836Y-123298193D01*
X97558762Y-123358233D01*
X97558765Y-123358234D01*
X97741170Y-123455732D01*
X97901055Y-123586945D01*
X98032268Y-123746830D01*
X98129766Y-123929235D01*
X98129767Y-123929238D01*
X98189807Y-124127164D01*
X98210080Y-124333000D01*
X98189807Y-124538836D01*
X98129767Y-124736762D01*
X98129766Y-124736765D01*
X98032268Y-124919170D01*
X97901055Y-125079055D01*
X97741170Y-125210268D01*
X97558765Y-125307766D01*
X97558762Y-125307767D01*
X97360836Y-125367807D01*
X97283707Y-125375403D01*
X97206580Y-125383000D01*
X97103420Y-125383000D01*
X97026293Y-125375403D01*
X96949164Y-125367807D01*
X96751238Y-125307767D01*
X96751235Y-125307766D01*
X96568830Y-125210268D01*
X96408945Y-125079055D01*
X96277732Y-124919170D01*
X96180234Y-124736765D01*
X96180233Y-124736762D01*
X96120193Y-124538836D01*
X96099920Y-124333000D01*
X96120193Y-124127164D01*
X96180233Y-123929238D01*
X96180234Y-123929235D01*
X96277732Y-123746830D01*
X96408945Y-123586945D01*
X96568830Y-123455732D01*
X96751235Y-123358234D01*
X96751238Y-123358233D01*
X96949164Y-123298193D01*
X97026293Y-123290596D01*
X97103420Y-123283000D01*
X97206580Y-123283000D01*
X97283707Y-123290596D01*
X97283707Y-123290596D01*
G37*
G36*
X99823707Y-123290596D02*
G01*
X99900836Y-123298193D01*
X100098762Y-123358233D01*
X100098765Y-123358234D01*
X100281170Y-123455732D01*
X100441055Y-123586945D01*
X100572268Y-123746830D01*
X100669766Y-123929235D01*
X100669767Y-123929238D01*
X100729807Y-124127164D01*
X100750080Y-124333000D01*
X100729807Y-124538836D01*
X100669767Y-124736762D01*
X100669766Y-124736765D01*
X100572268Y-124919170D01*
X100441055Y-125079055D01*
X100281170Y-125210268D01*
X100098765Y-125307766D01*
X100098762Y-125307767D01*
X99900836Y-125367807D01*
X99823707Y-125375403D01*
X99746580Y-125383000D01*
X99643420Y-125383000D01*
X99566293Y-125375403D01*
X99489164Y-125367807D01*
X99291238Y-125307767D01*
X99291235Y-125307766D01*
X99108830Y-125210268D01*
X98948945Y-125079055D01*
X98817732Y-124919170D01*
X98720234Y-124736765D01*
X98720233Y-124736762D01*
X98660193Y-124538836D01*
X98639920Y-124333000D01*
X98660193Y-124127164D01*
X98720233Y-123929238D01*
X98720234Y-123929235D01*
X98817732Y-123746830D01*
X98948945Y-123586945D01*
X99108830Y-123455732D01*
X99291235Y-123358234D01*
X99291238Y-123358233D01*
X99489164Y-123298193D01*
X99566293Y-123290596D01*
X99643420Y-123283000D01*
X99746580Y-123283000D01*
X99823707Y-123290596D01*
X99823707Y-123290596D01*
G37*
G36*
X102363707Y-123290596D02*
G01*
X102440836Y-123298193D01*
X102638762Y-123358233D01*
X102638765Y-123358234D01*
X102821170Y-123455732D01*
X102981055Y-123586945D01*
X103112268Y-123746830D01*
X103209766Y-123929235D01*
X103209767Y-123929238D01*
X103269807Y-124127164D01*
X103290080Y-124333000D01*
X103269807Y-124538836D01*
X103209767Y-124736762D01*
X103209766Y-124736765D01*
X103112268Y-124919170D01*
X102981055Y-125079055D01*
X102821170Y-125210268D01*
X102638765Y-125307766D01*
X102638762Y-125307767D01*
X102440836Y-125367807D01*
X102363707Y-125375403D01*
X102286580Y-125383000D01*
X102183420Y-125383000D01*
X102106293Y-125375403D01*
X102029164Y-125367807D01*
X101831238Y-125307767D01*
X101831235Y-125307766D01*
X101648830Y-125210268D01*
X101488945Y-125079055D01*
X101357732Y-124919170D01*
X101260234Y-124736765D01*
X101260233Y-124736762D01*
X101200193Y-124538836D01*
X101179920Y-124333000D01*
X101200193Y-124127164D01*
X101260233Y-123929238D01*
X101260234Y-123929235D01*
X101357732Y-123746830D01*
X101488945Y-123586945D01*
X101648830Y-123455732D01*
X101831235Y-123358234D01*
X101831238Y-123358233D01*
X102029164Y-123298193D01*
X102106293Y-123290596D01*
X102183420Y-123283000D01*
X102286580Y-123283000D01*
X102363707Y-123290596D01*
X102363707Y-123290596D01*
G37*
G36*
X105825000Y-125383000D02*
G01*
X103725000Y-125383000D01*
X103725000Y-123283000D01*
X105825000Y-123283000D01*
X105825000Y-125383000D01*
X105825000Y-125383000D01*
G37*
G36*
X110723900Y-122856789D02*
G01*
X110924394Y-122917608D01*
X111109159Y-123016367D01*
X111109162Y-123016369D01*
X111109163Y-123016370D01*
X111271118Y-123149282D01*
X111393325Y-123298193D01*
X111404033Y-123311241D01*
X111502792Y-123496006D01*
X111563611Y-123696500D01*
X111584146Y-123905000D01*
X111563611Y-124113500D01*
X111502792Y-124313994D01*
X111404033Y-124498759D01*
X111404031Y-124498762D01*
X111404030Y-124498763D01*
X111271118Y-124660718D01*
X111109163Y-124793630D01*
X111109159Y-124793633D01*
X110924394Y-124892392D01*
X110723900Y-124953211D01*
X110567651Y-124968600D01*
X109142349Y-124968600D01*
X108986100Y-124953211D01*
X108785606Y-124892392D01*
X108600841Y-124793633D01*
X108600837Y-124793630D01*
X108438882Y-124660718D01*
X108305970Y-124498763D01*
X108305969Y-124498762D01*
X108305967Y-124498759D01*
X108207208Y-124313994D01*
X108146389Y-124113500D01*
X108125854Y-123905000D01*
X108146389Y-123696500D01*
X108207208Y-123496006D01*
X108305967Y-123311241D01*
X108316675Y-123298193D01*
X108438882Y-123149282D01*
X108600837Y-123016370D01*
X108600838Y-123016369D01*
X108600841Y-123016367D01*
X108785606Y-122917608D01*
X108986100Y-122856789D01*
X109142349Y-122841400D01*
X110567651Y-122841400D01*
X110723900Y-122856789D01*
X110723900Y-122856789D01*
G37*
G36*
X123223900Y-122856789D02*
G01*
X123424394Y-122917608D01*
X123609159Y-123016367D01*
X123609162Y-123016369D01*
X123609163Y-123016370D01*
X123771118Y-123149282D01*
X123893325Y-123298193D01*
X123904033Y-123311241D01*
X124002792Y-123496006D01*
X124063611Y-123696500D01*
X124084146Y-123905000D01*
X124063611Y-124113500D01*
X124002792Y-124313994D01*
X123904033Y-124498759D01*
X123904031Y-124498762D01*
X123904030Y-124498763D01*
X123771118Y-124660718D01*
X123609163Y-124793630D01*
X123609159Y-124793633D01*
X123424394Y-124892392D01*
X123223900Y-124953211D01*
X123067651Y-124968600D01*
X121642349Y-124968600D01*
X121486100Y-124953211D01*
X121285606Y-124892392D01*
X121100841Y-124793633D01*
X121100837Y-124793630D01*
X120938882Y-124660718D01*
X120805970Y-124498763D01*
X120805969Y-124498762D01*
X120805967Y-124498759D01*
X120707208Y-124313994D01*
X120646389Y-124113500D01*
X120625854Y-123905000D01*
X120646389Y-123696500D01*
X120707208Y-123496006D01*
X120805967Y-123311241D01*
X120816675Y-123298193D01*
X120938882Y-123149282D01*
X121100837Y-123016370D01*
X121100838Y-123016369D01*
X121100841Y-123016367D01*
X121285606Y-122917608D01*
X121486100Y-122856789D01*
X121642349Y-122841400D01*
X123067651Y-122841400D01*
X123223900Y-122856789D01*
X123223900Y-122856789D01*
G37*
G36*
X92943900Y-122856789D02*
G01*
X93144394Y-122917608D01*
X93329159Y-123016367D01*
X93329162Y-123016369D01*
X93329163Y-123016370D01*
X93491118Y-123149282D01*
X93613325Y-123298193D01*
X93624033Y-123311241D01*
X93722792Y-123496006D01*
X93783611Y-123696500D01*
X93804146Y-123905000D01*
X93783611Y-124113500D01*
X93722792Y-124313994D01*
X93624033Y-124498759D01*
X93624031Y-124498762D01*
X93624030Y-124498763D01*
X93491118Y-124660718D01*
X93329163Y-124793630D01*
X93329159Y-124793633D01*
X93144394Y-124892392D01*
X92943900Y-124953211D01*
X92787651Y-124968600D01*
X91362349Y-124968600D01*
X91206100Y-124953211D01*
X91005606Y-124892392D01*
X90820841Y-124793633D01*
X90820837Y-124793630D01*
X90658882Y-124660718D01*
X90525970Y-124498763D01*
X90525969Y-124498762D01*
X90525967Y-124498759D01*
X90427208Y-124313994D01*
X90366389Y-124113500D01*
X90345854Y-123905000D01*
X90366389Y-123696500D01*
X90427208Y-123496006D01*
X90525967Y-123311241D01*
X90536675Y-123298193D01*
X90658882Y-123149282D01*
X90820837Y-123016370D01*
X90820838Y-123016369D01*
X90820841Y-123016367D01*
X91005606Y-122917608D01*
X91206100Y-122856789D01*
X91362349Y-122841400D01*
X92787651Y-122841400D01*
X92943900Y-122856789D01*
X92943900Y-122856789D01*
G37*
G36*
X80443900Y-122856789D02*
G01*
X80644394Y-122917608D01*
X80829159Y-123016367D01*
X80829162Y-123016369D01*
X80829163Y-123016370D01*
X80991118Y-123149282D01*
X81113325Y-123298193D01*
X81124033Y-123311241D01*
X81222792Y-123496006D01*
X81283611Y-123696500D01*
X81304146Y-123905000D01*
X81283611Y-124113500D01*
X81222792Y-124313994D01*
X81124033Y-124498759D01*
X81124031Y-124498762D01*
X81124030Y-124498763D01*
X80991118Y-124660718D01*
X80829163Y-124793630D01*
X80829159Y-124793633D01*
X80644394Y-124892392D01*
X80443900Y-124953211D01*
X80287651Y-124968600D01*
X78862349Y-124968600D01*
X78706100Y-124953211D01*
X78505606Y-124892392D01*
X78320841Y-124793633D01*
X78320837Y-124793630D01*
X78158882Y-124660718D01*
X78025970Y-124498763D01*
X78025969Y-124498762D01*
X78025967Y-124498759D01*
X77927208Y-124313994D01*
X77866389Y-124113500D01*
X77845854Y-123905000D01*
X77866389Y-123696500D01*
X77927208Y-123496006D01*
X78025967Y-123311241D01*
X78036675Y-123298193D01*
X78158882Y-123149282D01*
X78320837Y-123016370D01*
X78320838Y-123016369D01*
X78320841Y-123016367D01*
X78505606Y-122917608D01*
X78706100Y-122856789D01*
X78862349Y-122841400D01*
X80287651Y-122841400D01*
X80443900Y-122856789D01*
X80443900Y-122856789D01*
G37*
G36*
X140689290Y-111801619D02*
G01*
X140753689Y-111814429D01*
X140935678Y-111889811D01*
X141099463Y-111999249D01*
X141238751Y-112138537D01*
X141348189Y-112302322D01*
X141423571Y-112484311D01*
X141462000Y-112677509D01*
X141462000Y-112874491D01*
X141423571Y-113067689D01*
X141348189Y-113249678D01*
X141238751Y-113413463D01*
X141099463Y-113552751D01*
X140935678Y-113662189D01*
X140753689Y-113737571D01*
X140689290Y-113750381D01*
X140560493Y-113776000D01*
X140363507Y-113776000D01*
X140234710Y-113750381D01*
X140170311Y-113737571D01*
X139988322Y-113662189D01*
X139824537Y-113552751D01*
X139685249Y-113413463D01*
X139575811Y-113249678D01*
X139500429Y-113067689D01*
X139462000Y-112874491D01*
X139462000Y-112677509D01*
X139500429Y-112484311D01*
X139575811Y-112302322D01*
X139685249Y-112138537D01*
X139824537Y-111999249D01*
X139988322Y-111889811D01*
X140170311Y-111814429D01*
X140234710Y-111801619D01*
X140363507Y-111776000D01*
X140560493Y-111776000D01*
X140689290Y-111801619D01*
X140689290Y-111801619D01*
G37*
G36*
X145189290Y-111801619D02*
G01*
X145253689Y-111814429D01*
X145435678Y-111889811D01*
X145599463Y-111999249D01*
X145738751Y-112138537D01*
X145848189Y-112302322D01*
X145923571Y-112484311D01*
X145962000Y-112677509D01*
X145962000Y-112874491D01*
X145923571Y-113067689D01*
X145848189Y-113249678D01*
X145738751Y-113413463D01*
X145599463Y-113552751D01*
X145435678Y-113662189D01*
X145253689Y-113737571D01*
X145189290Y-113750381D01*
X145060493Y-113776000D01*
X144863507Y-113776000D01*
X144734710Y-113750381D01*
X144670311Y-113737571D01*
X144488322Y-113662189D01*
X144324537Y-113552751D01*
X144185249Y-113413463D01*
X144075811Y-113249678D01*
X144000429Y-113067689D01*
X143962000Y-112874491D01*
X143962000Y-112677509D01*
X144000429Y-112484311D01*
X144075811Y-112302322D01*
X144185249Y-112138537D01*
X144324537Y-111999249D01*
X144488322Y-111889811D01*
X144670311Y-111814429D01*
X144734710Y-111801619D01*
X144863507Y-111776000D01*
X145060493Y-111776000D01*
X145189290Y-111801619D01*
X145189290Y-111801619D01*
G37*
G36*
X104215654Y-108949665D02*
G01*
X104379872Y-108982330D01*
X104689252Y-109110479D01*
X104967687Y-109296523D01*
X105204477Y-109533313D01*
X105390521Y-109811748D01*
X105518670Y-110121128D01*
X105584000Y-110449565D01*
X105584000Y-110784435D01*
X105518670Y-111112872D01*
X105390521Y-111422252D01*
X105204477Y-111700687D01*
X104967687Y-111937477D01*
X104689252Y-112123521D01*
X104379872Y-112251670D01*
X104215653Y-112284335D01*
X104051437Y-112317000D01*
X103716563Y-112317000D01*
X103552347Y-112284335D01*
X103388128Y-112251670D01*
X103078748Y-112123521D01*
X102800313Y-111937477D01*
X102563523Y-111700687D01*
X102377479Y-111422252D01*
X102249330Y-111112872D01*
X102184000Y-110784435D01*
X102184000Y-110449565D01*
X102249330Y-110121128D01*
X102377479Y-109811748D01*
X102563523Y-109533313D01*
X102800313Y-109296523D01*
X103078748Y-109110479D01*
X103388128Y-108982330D01*
X103552346Y-108949665D01*
X103716563Y-108917000D01*
X104051437Y-108917000D01*
X104215654Y-108949665D01*
X104215654Y-108949665D01*
G37*
G36*
X99645654Y-108949665D02*
G01*
X99809872Y-108982330D01*
X100119252Y-109110479D01*
X100397687Y-109296523D01*
X100634477Y-109533313D01*
X100820521Y-109811748D01*
X100948670Y-110121128D01*
X101014000Y-110449565D01*
X101014000Y-110784435D01*
X100948670Y-111112872D01*
X100820521Y-111422252D01*
X100634477Y-111700687D01*
X100397687Y-111937477D01*
X100119252Y-112123521D01*
X99809872Y-112251670D01*
X99645653Y-112284335D01*
X99481437Y-112317000D01*
X99146563Y-112317000D01*
X98982347Y-112284335D01*
X98818128Y-112251670D01*
X98508748Y-112123521D01*
X98230313Y-111937477D01*
X97993523Y-111700687D01*
X97807479Y-111422252D01*
X97679330Y-111112872D01*
X97614000Y-110784435D01*
X97614000Y-110449565D01*
X97679330Y-110121128D01*
X97807479Y-109811748D01*
X97993523Y-109533313D01*
X98230313Y-109296523D01*
X98508748Y-109110479D01*
X98818128Y-108982330D01*
X98982346Y-108949665D01*
X99146563Y-108917000D01*
X99481437Y-108917000D01*
X99645654Y-108949665D01*
X99645654Y-108949665D01*
G37*
G36*
X102600000Y-99893000D02*
G01*
X101124999Y-99893000D01*
X101100613Y-99895402D01*
X101077164Y-99902515D01*
X101055553Y-99914066D01*
X101036611Y-99929611D01*
X101021066Y-99948553D01*
X101009515Y-99970164D01*
X101002402Y-99993613D01*
X101000000Y-100017999D01*
X101000000Y-100563937D01*
X99000000Y-100563937D01*
X99000000Y-98563937D01*
X100475001Y-98563937D01*
X100499387Y-98561535D01*
X100522836Y-98554422D01*
X100544447Y-98542871D01*
X100563389Y-98527326D01*
X100578934Y-98508384D01*
X100590485Y-98486773D01*
X100597598Y-98463324D01*
X100600000Y-98438938D01*
X100600000Y-97893000D01*
X102600000Y-97893000D01*
X102600000Y-99893000D01*
X102600000Y-99893000D01*
G37*
G36*
X112633000Y-100060000D02*
G01*
X110633000Y-100060000D01*
X110633000Y-98060000D01*
X112633000Y-98060000D01*
X112633000Y-100060000D01*
X112633000Y-100060000D01*
G37*
G36*
X85836000Y-99933000D02*
G01*
X83836000Y-99933000D01*
X83836000Y-97933000D01*
X85836000Y-97933000D01*
X85836000Y-99933000D01*
X85836000Y-99933000D01*
G37*
G36*
X128447529Y-97401710D02*
G01*
X128497378Y-97416831D01*
X128543310Y-97441382D01*
X128583574Y-97474426D01*
X128616618Y-97514690D01*
X128641169Y-97560622D01*
X128656290Y-97610471D01*
X128662000Y-97668444D01*
X128662000Y-98673556D01*
X128656290Y-98731529D01*
X128641169Y-98781378D01*
X128616618Y-98827310D01*
X128583574Y-98867574D01*
X128543310Y-98900618D01*
X128497378Y-98925169D01*
X128447529Y-98940290D01*
X128389556Y-98946000D01*
X127134444Y-98946000D01*
X127076471Y-98940290D01*
X127026622Y-98925169D01*
X126980690Y-98900618D01*
X126940426Y-98867574D01*
X126907382Y-98827310D01*
X126882831Y-98781378D01*
X126867710Y-98731529D01*
X126862000Y-98673556D01*
X126862000Y-97668444D01*
X126867710Y-97610471D01*
X126882831Y-97560622D01*
X126907382Y-97514690D01*
X126940426Y-97474426D01*
X126980690Y-97441382D01*
X127026622Y-97416831D01*
X127076471Y-97401710D01*
X127134444Y-97396000D01*
X128389556Y-97396000D01*
X128447529Y-97401710D01*
X128447529Y-97401710D01*
G37*
G36*
X130987529Y-97401710D02*
G01*
X131037378Y-97416831D01*
X131083310Y-97441382D01*
X131123574Y-97474426D01*
X131156618Y-97514690D01*
X131181169Y-97560622D01*
X131196290Y-97610471D01*
X131202000Y-97668444D01*
X131202000Y-98673556D01*
X131196290Y-98731529D01*
X131181169Y-98781378D01*
X131156618Y-98827310D01*
X131123574Y-98867574D01*
X131083310Y-98900618D01*
X131037378Y-98925169D01*
X130987529Y-98940290D01*
X130929556Y-98946000D01*
X129674444Y-98946000D01*
X129616471Y-98940290D01*
X129566622Y-98925169D01*
X129520690Y-98900618D01*
X129480426Y-98867574D01*
X129447382Y-98827310D01*
X129422831Y-98781378D01*
X129407710Y-98731529D01*
X129402000Y-98673556D01*
X129402000Y-97668444D01*
X129407710Y-97610471D01*
X129422831Y-97560622D01*
X129447382Y-97514690D01*
X129480426Y-97474426D01*
X129520690Y-97441382D01*
X129566622Y-97416831D01*
X129616471Y-97401710D01*
X129674444Y-97396000D01*
X130929556Y-97396000D01*
X130987529Y-97401710D01*
X130987529Y-97401710D01*
G37*
G36*
X118871617Y-95879979D02*
G01*
X118997196Y-95904958D01*
X119233781Y-96002955D01*
X119446702Y-96145224D01*
X119627776Y-96326298D01*
X119770045Y-96539219D01*
X119868042Y-96775804D01*
X119880655Y-96839213D01*
X119918000Y-97026960D01*
X119918000Y-97283040D01*
X119895815Y-97394571D01*
X119868042Y-97534196D01*
X119770045Y-97770781D01*
X119627776Y-97983702D01*
X119446702Y-98164776D01*
X119233781Y-98307045D01*
X118997196Y-98405042D01*
X118871617Y-98430021D01*
X118746040Y-98455000D01*
X118489960Y-98455000D01*
X118238804Y-98405042D01*
X118002219Y-98307045D01*
X117789298Y-98164776D01*
X117608224Y-97983702D01*
X117465955Y-97770781D01*
X117367958Y-97534196D01*
X117340185Y-97394571D01*
X117318000Y-97283040D01*
X117318000Y-97026960D01*
X117355345Y-96839213D01*
X117367958Y-96775804D01*
X117465955Y-96539219D01*
X117608224Y-96326298D01*
X117789298Y-96145224D01*
X118002219Y-96002955D01*
X118238804Y-95904958D01*
X118364383Y-95879979D01*
X118489960Y-95855000D01*
X118746040Y-95855000D01*
X118871617Y-95879979D01*
X118871617Y-95879979D01*
G37*
G36*
X133871617Y-95879979D02*
G01*
X133997196Y-95904958D01*
X134233781Y-96002955D01*
X134446702Y-96145224D01*
X134627776Y-96326298D01*
X134770045Y-96539219D01*
X134868042Y-96775804D01*
X134880655Y-96839213D01*
X134918000Y-97026960D01*
X134918000Y-97283040D01*
X134895815Y-97394571D01*
X134868042Y-97534196D01*
X134770045Y-97770781D01*
X134627776Y-97983702D01*
X134446702Y-98164776D01*
X134233781Y-98307045D01*
X133997196Y-98405042D01*
X133871617Y-98430021D01*
X133746040Y-98455000D01*
X133489960Y-98455000D01*
X133238804Y-98405042D01*
X133002219Y-98307045D01*
X132789298Y-98164776D01*
X132608224Y-97983702D01*
X132465955Y-97770781D01*
X132367958Y-97534196D01*
X132340185Y-97394571D01*
X132318000Y-97283040D01*
X132318000Y-97026960D01*
X132355345Y-96839213D01*
X132367958Y-96775804D01*
X132465955Y-96539219D01*
X132608224Y-96326298D01*
X132789298Y-96145224D01*
X133002219Y-96002955D01*
X133238804Y-95904958D01*
X133364383Y-95879979D01*
X133489960Y-95855000D01*
X133746040Y-95855000D01*
X133871617Y-95879979D01*
X133871617Y-95879979D01*
G37*
G36*
X125433981Y-96085186D02*
G01*
X125478705Y-96098754D01*
X125519930Y-96120789D01*
X125556061Y-96150439D01*
X125585711Y-96186570D01*
X125607746Y-96227795D01*
X125621314Y-96272519D01*
X125626500Y-96325176D01*
X125626500Y-97984824D01*
X125621314Y-98037481D01*
X125607746Y-98082205D01*
X125585711Y-98123430D01*
X125556061Y-98159561D01*
X125519930Y-98189211D01*
X125478705Y-98211246D01*
X125433981Y-98224814D01*
X125381324Y-98230000D01*
X124046676Y-98230000D01*
X123994019Y-98224814D01*
X123949295Y-98211246D01*
X123908070Y-98189211D01*
X123871939Y-98159561D01*
X123842289Y-98123430D01*
X123820254Y-98082205D01*
X123806686Y-98037481D01*
X123801500Y-97984824D01*
X123801500Y-96325176D01*
X123806686Y-96272519D01*
X123820254Y-96227795D01*
X123842289Y-96186570D01*
X123871939Y-96150439D01*
X123908070Y-96120789D01*
X123949295Y-96098754D01*
X123994019Y-96085186D01*
X124046676Y-96080000D01*
X125381324Y-96080000D01*
X125433981Y-96085186D01*
X125433981Y-96085186D01*
G37*
G36*
X122458981Y-96085186D02*
G01*
X122503705Y-96098754D01*
X122544930Y-96120789D01*
X122581061Y-96150439D01*
X122610711Y-96186570D01*
X122632746Y-96227795D01*
X122646314Y-96272519D01*
X122651500Y-96325176D01*
X122651500Y-97984824D01*
X122646314Y-98037481D01*
X122632746Y-98082205D01*
X122610711Y-98123430D01*
X122581061Y-98159561D01*
X122544930Y-98189211D01*
X122503705Y-98211246D01*
X122458981Y-98224814D01*
X122406324Y-98230000D01*
X121071676Y-98230000D01*
X121019019Y-98224814D01*
X120974295Y-98211246D01*
X120933070Y-98189211D01*
X120896939Y-98159561D01*
X120867289Y-98123430D01*
X120845254Y-98082205D01*
X120831686Y-98037481D01*
X120826500Y-97984824D01*
X120826500Y-96325176D01*
X120831686Y-96272519D01*
X120845254Y-96227795D01*
X120867289Y-96186570D01*
X120896939Y-96150439D01*
X120933070Y-96120789D01*
X120974295Y-96098754D01*
X121019019Y-96085186D01*
X121071676Y-96080000D01*
X122406324Y-96080000D01*
X122458981Y-96085186D01*
X122458981Y-96085186D01*
G37*
G36*
X85063290Y-95458619D02*
G01*
X85127689Y-95471429D01*
X85309678Y-95546811D01*
X85473463Y-95656249D01*
X85612751Y-95795537D01*
X85722189Y-95959322D01*
X85797571Y-96141311D01*
X85804029Y-96173777D01*
X85836000Y-96334507D01*
X85836000Y-96531493D01*
X85820576Y-96609032D01*
X85797571Y-96724689D01*
X85722189Y-96906678D01*
X85612751Y-97070463D01*
X85473463Y-97209751D01*
X85309678Y-97319189D01*
X85127689Y-97394571D01*
X85091798Y-97401710D01*
X84934493Y-97433000D01*
X84737507Y-97433000D01*
X84580202Y-97401710D01*
X84544311Y-97394571D01*
X84362322Y-97319189D01*
X84198537Y-97209751D01*
X84059249Y-97070463D01*
X83949811Y-96906678D01*
X83874429Y-96724689D01*
X83851424Y-96609032D01*
X83836000Y-96531493D01*
X83836000Y-96334507D01*
X83867971Y-96173777D01*
X83874429Y-96141311D01*
X83949811Y-95959322D01*
X84059249Y-95795537D01*
X84198537Y-95656249D01*
X84362322Y-95546811D01*
X84544311Y-95471429D01*
X84608710Y-95458619D01*
X84737507Y-95433000D01*
X84934493Y-95433000D01*
X85063290Y-95458619D01*
X85063290Y-95458619D01*
G37*
G36*
X103427290Y-94747682D02*
G01*
X103491689Y-94760492D01*
X103673678Y-94835874D01*
X103837463Y-94945312D01*
X103976751Y-95084600D01*
X104086189Y-95248385D01*
X104161571Y-95430374D01*
X104167764Y-95461507D01*
X104200000Y-95623570D01*
X104200000Y-95820556D01*
X104187181Y-95885000D01*
X104161571Y-96013752D01*
X104086189Y-96195741D01*
X103976751Y-96359526D01*
X103837463Y-96498814D01*
X103673678Y-96608252D01*
X103491689Y-96683634D01*
X103427290Y-96696444D01*
X103298493Y-96722063D01*
X103101507Y-96722063D01*
X102972710Y-96696444D01*
X102908311Y-96683634D01*
X102728200Y-96609030D01*
X102704758Y-96601919D01*
X102680372Y-96599517D01*
X102655986Y-96601919D01*
X102632537Y-96609032D01*
X102610926Y-96620583D01*
X102591984Y-96636128D01*
X102576439Y-96655070D01*
X102564888Y-96676681D01*
X102561571Y-96684688D01*
X102561571Y-96684689D01*
X102486189Y-96866678D01*
X102376751Y-97030463D01*
X102237463Y-97169751D01*
X102073678Y-97279189D01*
X101891689Y-97354571D01*
X101827290Y-97367381D01*
X101698493Y-97393000D01*
X101501507Y-97393000D01*
X101372710Y-97367381D01*
X101308311Y-97354571D01*
X101126322Y-97279189D01*
X100962537Y-97169751D01*
X100823249Y-97030463D01*
X100713811Y-96866678D01*
X100638429Y-96684689D01*
X100609494Y-96539221D01*
X100600000Y-96491493D01*
X100600000Y-96294507D01*
X100638429Y-96101312D01*
X100638429Y-96101311D01*
X100713811Y-95919322D01*
X100823249Y-95755537D01*
X100962537Y-95616249D01*
X101126322Y-95506811D01*
X101308311Y-95431429D01*
X101372710Y-95418619D01*
X101501507Y-95393000D01*
X101698493Y-95393000D01*
X101827290Y-95418619D01*
X101891689Y-95431429D01*
X102071800Y-95506033D01*
X102095242Y-95513144D01*
X102119628Y-95515546D01*
X102144014Y-95513144D01*
X102167463Y-95506031D01*
X102189074Y-95494480D01*
X102208016Y-95478935D01*
X102223561Y-95459993D01*
X102235112Y-95438382D01*
X102262754Y-95371649D01*
X102313811Y-95248385D01*
X102423249Y-95084600D01*
X102562537Y-94945312D01*
X102726322Y-94835874D01*
X102908311Y-94760492D01*
X102972710Y-94747682D01*
X103101507Y-94722063D01*
X103298493Y-94722063D01*
X103427290Y-94747682D01*
X103427290Y-94747682D01*
G37*
G36*
X139066707Y-94842596D02*
G01*
X139143836Y-94850193D01*
X139341762Y-94910233D01*
X139341765Y-94910234D01*
X139524170Y-95007732D01*
X139684055Y-95138945D01*
X139815268Y-95298830D01*
X139912766Y-95481235D01*
X139912767Y-95481238D01*
X139972807Y-95679164D01*
X139993080Y-95885000D01*
X139972807Y-96090836D01*
X139940462Y-96197463D01*
X139912766Y-96288765D01*
X139815268Y-96471170D01*
X139684055Y-96631055D01*
X139524170Y-96762268D01*
X139341765Y-96859766D01*
X139341762Y-96859767D01*
X139143836Y-96919807D01*
X139066707Y-96927404D01*
X138989580Y-96935000D01*
X138886420Y-96935000D01*
X138809293Y-96927403D01*
X138732164Y-96919807D01*
X138534238Y-96859767D01*
X138534235Y-96859766D01*
X138351830Y-96762268D01*
X138191945Y-96631055D01*
X138060732Y-96471170D01*
X137963234Y-96288765D01*
X137935538Y-96197463D01*
X137903193Y-96090836D01*
X137882920Y-95885000D01*
X137903193Y-95679164D01*
X137963233Y-95481238D01*
X137963234Y-95481235D01*
X138060732Y-95298830D01*
X138191945Y-95138945D01*
X138351830Y-95007732D01*
X138534235Y-94910234D01*
X138534238Y-94910233D01*
X138732164Y-94850193D01*
X138809293Y-94842597D01*
X138886420Y-94835000D01*
X138989580Y-94835000D01*
X139066707Y-94842596D01*
X139066707Y-94842596D01*
G37*
G36*
X142528000Y-96935000D02*
G01*
X140428000Y-96935000D01*
X140428000Y-94835000D01*
X142528000Y-94835000D01*
X142528000Y-96935000D01*
X142528000Y-96935000D01*
G37*
G36*
X130987529Y-95351710D02*
G01*
X131037378Y-95366831D01*
X131083310Y-95391382D01*
X131123574Y-95424426D01*
X131156618Y-95464690D01*
X131181169Y-95510622D01*
X131196290Y-95560471D01*
X131202000Y-95618444D01*
X131202000Y-96623556D01*
X131196290Y-96681529D01*
X131181169Y-96731378D01*
X131156618Y-96777310D01*
X131123574Y-96817574D01*
X131083310Y-96850618D01*
X131037378Y-96875169D01*
X130987529Y-96890290D01*
X130929556Y-96896000D01*
X129674444Y-96896000D01*
X129616471Y-96890290D01*
X129566622Y-96875169D01*
X129520690Y-96850618D01*
X129480426Y-96817574D01*
X129447382Y-96777310D01*
X129422831Y-96731378D01*
X129407710Y-96681529D01*
X129402000Y-96623556D01*
X129402000Y-95618444D01*
X129407710Y-95560471D01*
X129422831Y-95510622D01*
X129447382Y-95464690D01*
X129480426Y-95424426D01*
X129520690Y-95391382D01*
X129566622Y-95366831D01*
X129616471Y-95351710D01*
X129674444Y-95346000D01*
X130929556Y-95346000D01*
X130987529Y-95351710D01*
X130987529Y-95351710D01*
G37*
G36*
X128447529Y-95351710D02*
G01*
X128497378Y-95366831D01*
X128543310Y-95391382D01*
X128583574Y-95424426D01*
X128616618Y-95464690D01*
X128641169Y-95510622D01*
X128656290Y-95560471D01*
X128662000Y-95618444D01*
X128662000Y-96623556D01*
X128656290Y-96681529D01*
X128641169Y-96731378D01*
X128616618Y-96777310D01*
X128583574Y-96817574D01*
X128543310Y-96850618D01*
X128497378Y-96875169D01*
X128447529Y-96890290D01*
X128389556Y-96896000D01*
X127134444Y-96896000D01*
X127076471Y-96890290D01*
X127026622Y-96875169D01*
X126980690Y-96850618D01*
X126940426Y-96817574D01*
X126907382Y-96777310D01*
X126882831Y-96731378D01*
X126867710Y-96681529D01*
X126862000Y-96623556D01*
X126862000Y-95618444D01*
X126867710Y-95560471D01*
X126882831Y-95510622D01*
X126907382Y-95464690D01*
X126940426Y-95424426D01*
X126980690Y-95391382D01*
X127026622Y-95366831D01*
X127076471Y-95351710D01*
X127134444Y-95346000D01*
X128389556Y-95346000D01*
X128447529Y-95351710D01*
X128447529Y-95351710D01*
G37*
G36*
X111860290Y-94585619D02*
G01*
X111924689Y-94598429D01*
X112106678Y-94673811D01*
X112270463Y-94783249D01*
X112409751Y-94922537D01*
X112519189Y-95086322D01*
X112594571Y-95268311D01*
X112607381Y-95332710D01*
X112632699Y-95459993D01*
X112633000Y-95461509D01*
X112633000Y-95658491D01*
X112594571Y-95851689D01*
X112519189Y-96033678D01*
X112409751Y-96197463D01*
X112270463Y-96336751D01*
X112106678Y-96446189D01*
X111924689Y-96521571D01*
X111874817Y-96531491D01*
X111731493Y-96560000D01*
X111534507Y-96560000D01*
X111391183Y-96531491D01*
X111341311Y-96521571D01*
X111159322Y-96446189D01*
X110995537Y-96336751D01*
X110856249Y-96197463D01*
X110746811Y-96033678D01*
X110671429Y-95851689D01*
X110633000Y-95658491D01*
X110633000Y-95461509D01*
X110633302Y-95459993D01*
X110658619Y-95332710D01*
X110671429Y-95268311D01*
X110746811Y-95086322D01*
X110856249Y-94922537D01*
X110995537Y-94783249D01*
X111159322Y-94673811D01*
X111341311Y-94598429D01*
X111405710Y-94585619D01*
X111534507Y-94560000D01*
X111731493Y-94560000D01*
X111860290Y-94585619D01*
X111860290Y-94585619D01*
G37*
G36*
X138727290Y-85025619D02*
G01*
X138791689Y-85038429D01*
X138973678Y-85113811D01*
X139137463Y-85223249D01*
X139276751Y-85362537D01*
X139386189Y-85526322D01*
X139399417Y-85558258D01*
X139461571Y-85708312D01*
X139500000Y-85901507D01*
X139500000Y-86098493D01*
X139496108Y-86118060D01*
X139461571Y-86291689D01*
X139386189Y-86473678D01*
X139276751Y-86637463D01*
X139137463Y-86776751D01*
X138973678Y-86886189D01*
X138791689Y-86961571D01*
X138727290Y-86974381D01*
X138598493Y-87000000D01*
X138401507Y-87000000D01*
X138272710Y-86974381D01*
X138208311Y-86961571D01*
X138026322Y-86886189D01*
X137862537Y-86776751D01*
X137723249Y-86637463D01*
X137613811Y-86473678D01*
X137538429Y-86291689D01*
X137503892Y-86118060D01*
X137500000Y-86098493D01*
X137500000Y-85901507D01*
X137538429Y-85708312D01*
X137600583Y-85558258D01*
X137613811Y-85526322D01*
X137723249Y-85362537D01*
X137862537Y-85223249D01*
X138026322Y-85113811D01*
X138208311Y-85038429D01*
X138272710Y-85025619D01*
X138401507Y-85000000D01*
X138598493Y-85000000D01*
X138727290Y-85025619D01*
X138727290Y-85025619D01*
G37*
G36*
X116227290Y-85025619D02*
G01*
X116291689Y-85038429D01*
X116473678Y-85113811D01*
X116637463Y-85223249D01*
X116776751Y-85362537D01*
X116886189Y-85526322D01*
X116899417Y-85558258D01*
X116961571Y-85708312D01*
X117000000Y-85901507D01*
X117000000Y-86098493D01*
X116996108Y-86118060D01*
X116961571Y-86291689D01*
X116886189Y-86473678D01*
X116776751Y-86637463D01*
X116637463Y-86776751D01*
X116473678Y-86886189D01*
X116291689Y-86961571D01*
X116227290Y-86974381D01*
X116098493Y-87000000D01*
X115901507Y-87000000D01*
X115772710Y-86974381D01*
X115708311Y-86961571D01*
X115526322Y-86886189D01*
X115362537Y-86776751D01*
X115223249Y-86637463D01*
X115113811Y-86473678D01*
X115038429Y-86291689D01*
X115003892Y-86118060D01*
X115000000Y-86098493D01*
X115000000Y-85901507D01*
X115038429Y-85708312D01*
X115100583Y-85558258D01*
X115113811Y-85526322D01*
X115223249Y-85362537D01*
X115362537Y-85223249D01*
X115526322Y-85113811D01*
X115708311Y-85038429D01*
X115772710Y-85025619D01*
X115901507Y-85000000D01*
X116098493Y-85000000D01*
X116227290Y-85025619D01*
X116227290Y-85025619D01*
G37*
G36*
X84227290Y-85025619D02*
G01*
X84291689Y-85038429D01*
X84473678Y-85113811D01*
X84637463Y-85223249D01*
X84776751Y-85362537D01*
X84886189Y-85526322D01*
X84899417Y-85558258D01*
X84961571Y-85708312D01*
X85000000Y-85901507D01*
X85000000Y-86098493D01*
X84996108Y-86118060D01*
X84961571Y-86291689D01*
X84886189Y-86473678D01*
X84776751Y-86637463D01*
X84637463Y-86776751D01*
X84473678Y-86886189D01*
X84291689Y-86961571D01*
X84227290Y-86974381D01*
X84098493Y-87000000D01*
X83901507Y-87000000D01*
X83772710Y-86974381D01*
X83708311Y-86961571D01*
X83526322Y-86886189D01*
X83362537Y-86776751D01*
X83223249Y-86637463D01*
X83113811Y-86473678D01*
X83038429Y-86291689D01*
X83003892Y-86118060D01*
X83000000Y-86098493D01*
X83000000Y-85901507D01*
X83038429Y-85708312D01*
X83100583Y-85558258D01*
X83113811Y-85526322D01*
X83223249Y-85362537D01*
X83362537Y-85223249D01*
X83526322Y-85113811D01*
X83708311Y-85038429D01*
X83772710Y-85025619D01*
X83901507Y-85000000D01*
X84098493Y-85000000D01*
X84227290Y-85025619D01*
X84227290Y-85025619D01*
G37*
G36*
X61727290Y-85025619D02*
G01*
X61791689Y-85038429D01*
X61973678Y-85113811D01*
X62137463Y-85223249D01*
X62276751Y-85362537D01*
X62386189Y-85526322D01*
X62399417Y-85558258D01*
X62461571Y-85708312D01*
X62500000Y-85901507D01*
X62500000Y-86098493D01*
X62496108Y-86118060D01*
X62461571Y-86291689D01*
X62386189Y-86473678D01*
X62276751Y-86637463D01*
X62137463Y-86776751D01*
X61973678Y-86886189D01*
X61791689Y-86961571D01*
X61727290Y-86974381D01*
X61598493Y-87000000D01*
X61401507Y-87000000D01*
X61272710Y-86974381D01*
X61208311Y-86961571D01*
X61026322Y-86886189D01*
X60862537Y-86776751D01*
X60723249Y-86637463D01*
X60613811Y-86473678D01*
X60538429Y-86291689D01*
X60503892Y-86118060D01*
X60500000Y-86098493D01*
X60500000Y-85901507D01*
X60538429Y-85708312D01*
X60600583Y-85558258D01*
X60613811Y-85526322D01*
X60723249Y-85362537D01*
X60862537Y-85223249D01*
X61026322Y-85113811D01*
X61208311Y-85038429D01*
X61272710Y-85025619D01*
X61401507Y-85000000D01*
X61598493Y-85000000D01*
X61727290Y-85025619D01*
X61727290Y-85025619D01*
G37*
G36*
X65714004Y-83786333D02*
G01*
X65796484Y-83809400D01*
X65872879Y-83848116D01*
X65940251Y-83900990D01*
X66000039Y-83970684D01*
X66032361Y-84016844D01*
X66032364Y-84016848D01*
X66223257Y-84289472D01*
X66638268Y-84882168D01*
X66683305Y-84962177D01*
X66709949Y-85043576D01*
X66720201Y-85128603D01*
X66713667Y-85214004D01*
X66690600Y-85296484D01*
X66651884Y-85372879D01*
X66599010Y-85440251D01*
X66529316Y-85500039D01*
X66483156Y-85532361D01*
X66483152Y-85532364D01*
X66231873Y-85708311D01*
X65617832Y-86138268D01*
X65537823Y-86183305D01*
X65456424Y-86209949D01*
X65371397Y-86220201D01*
X65285996Y-86213667D01*
X65203516Y-86190600D01*
X65127121Y-86151884D01*
X65059749Y-86099010D01*
X64999961Y-86029316D01*
X64967639Y-85983156D01*
X64967636Y-85983152D01*
X64629357Y-85500039D01*
X64361732Y-85117832D01*
X64316695Y-85037823D01*
X64290051Y-84956424D01*
X64279799Y-84871397D01*
X64286333Y-84785996D01*
X64309400Y-84703516D01*
X64348116Y-84627121D01*
X64400990Y-84559749D01*
X64470684Y-84499961D01*
X64516844Y-84467639D01*
X64516848Y-84467636D01*
X65082372Y-84071652D01*
X65382168Y-83861732D01*
X65462177Y-83816695D01*
X65543576Y-83790051D01*
X65628603Y-83779799D01*
X65714004Y-83786333D01*
X65714004Y-83786333D01*
G37*
G36*
X88214004Y-83786333D02*
G01*
X88296484Y-83809400D01*
X88372879Y-83848116D01*
X88440251Y-83900990D01*
X88500039Y-83970684D01*
X88532361Y-84016844D01*
X88532364Y-84016848D01*
X88723257Y-84289472D01*
X89138268Y-84882168D01*
X89183305Y-84962177D01*
X89209949Y-85043576D01*
X89220201Y-85128603D01*
X89213667Y-85214004D01*
X89190600Y-85296484D01*
X89151884Y-85372879D01*
X89099010Y-85440251D01*
X89029316Y-85500039D01*
X88983156Y-85532361D01*
X88983152Y-85532364D01*
X88731873Y-85708311D01*
X88117832Y-86138268D01*
X88037823Y-86183305D01*
X87956424Y-86209949D01*
X87871397Y-86220201D01*
X87785996Y-86213667D01*
X87703516Y-86190600D01*
X87627121Y-86151884D01*
X87559749Y-86099010D01*
X87499961Y-86029316D01*
X87467639Y-85983156D01*
X87467636Y-85983152D01*
X87129357Y-85500039D01*
X86861732Y-85117832D01*
X86816695Y-85037823D01*
X86790051Y-84956424D01*
X86779799Y-84871397D01*
X86786333Y-84785996D01*
X86809400Y-84703516D01*
X86848116Y-84627121D01*
X86900990Y-84559749D01*
X86970684Y-84499961D01*
X87016844Y-84467639D01*
X87016848Y-84467636D01*
X87582372Y-84071652D01*
X87882168Y-83861732D01*
X87962177Y-83816695D01*
X88043576Y-83790051D01*
X88128603Y-83779799D01*
X88214004Y-83786333D01*
X88214004Y-83786333D01*
G37*
G36*
X120214004Y-83786333D02*
G01*
X120296484Y-83809400D01*
X120372879Y-83848116D01*
X120440251Y-83900990D01*
X120500039Y-83970684D01*
X120532361Y-84016844D01*
X120532364Y-84016848D01*
X120723257Y-84289472D01*
X121138268Y-84882168D01*
X121183305Y-84962177D01*
X121209949Y-85043576D01*
X121220201Y-85128603D01*
X121213667Y-85214004D01*
X121190600Y-85296484D01*
X121151884Y-85372879D01*
X121099010Y-85440251D01*
X121029316Y-85500039D01*
X120983156Y-85532361D01*
X120983152Y-85532364D01*
X120731873Y-85708311D01*
X120117832Y-86138268D01*
X120037823Y-86183305D01*
X119956424Y-86209949D01*
X119871397Y-86220201D01*
X119785996Y-86213667D01*
X119703516Y-86190600D01*
X119627121Y-86151884D01*
X119559749Y-86099010D01*
X119499961Y-86029316D01*
X119467639Y-85983156D01*
X119467636Y-85983152D01*
X119129357Y-85500039D01*
X118861732Y-85117832D01*
X118816695Y-85037823D01*
X118790051Y-84956424D01*
X118779799Y-84871397D01*
X118786333Y-84785996D01*
X118809400Y-84703516D01*
X118848116Y-84627121D01*
X118900990Y-84559749D01*
X118970684Y-84499961D01*
X119016844Y-84467639D01*
X119016848Y-84467636D01*
X119582372Y-84071652D01*
X119882168Y-83861732D01*
X119962177Y-83816695D01*
X120043576Y-83790051D01*
X120128603Y-83779799D01*
X120214004Y-83786333D01*
X120214004Y-83786333D01*
G37*
G36*
X142714004Y-83786333D02*
G01*
X142796484Y-83809400D01*
X142872879Y-83848116D01*
X142940251Y-83900990D01*
X143000039Y-83970684D01*
X143032361Y-84016844D01*
X143032364Y-84016848D01*
X143223257Y-84289472D01*
X143638268Y-84882168D01*
X143683305Y-84962177D01*
X143709949Y-85043576D01*
X143720201Y-85128603D01*
X143713667Y-85214004D01*
X143690600Y-85296484D01*
X143651884Y-85372879D01*
X143599010Y-85440251D01*
X143529316Y-85500039D01*
X143483156Y-85532361D01*
X143483152Y-85532364D01*
X143231873Y-85708311D01*
X142617832Y-86138268D01*
X142537823Y-86183305D01*
X142456424Y-86209949D01*
X142371397Y-86220201D01*
X142285996Y-86213667D01*
X142203516Y-86190600D01*
X142127121Y-86151884D01*
X142059749Y-86099010D01*
X141999961Y-86029316D01*
X141967639Y-85983156D01*
X141967636Y-85983152D01*
X141629357Y-85500039D01*
X141361732Y-85117832D01*
X141316695Y-85037823D01*
X141290051Y-84956424D01*
X141279799Y-84871397D01*
X141286333Y-84785996D01*
X141309400Y-84703516D01*
X141348116Y-84627121D01*
X141400990Y-84559749D01*
X141470684Y-84499961D01*
X141516844Y-84467639D01*
X141516848Y-84467636D01*
X142082372Y-84071652D01*
X142382168Y-83861732D01*
X142462177Y-83816695D01*
X142543576Y-83790051D01*
X142628603Y-83779799D01*
X142714004Y-83786333D01*
X142714004Y-83786333D01*
G37*
G36*
X112196032Y-84014469D02*
G01*
X112290285Y-84043061D01*
X112384535Y-84071651D01*
X112384537Y-84071652D01*
X112558258Y-84164507D01*
X112710528Y-84289472D01*
X112835493Y-84441742D01*
X112924659Y-84608562D01*
X112928349Y-84615465D01*
X112952777Y-84695993D01*
X112985531Y-84803968D01*
X113004838Y-85000000D01*
X112985531Y-85196032D01*
X112956940Y-85290284D01*
X112931885Y-85372879D01*
X112928348Y-85384537D01*
X112835493Y-85558258D01*
X112710528Y-85710528D01*
X112558258Y-85835493D01*
X112384537Y-85928348D01*
X112384535Y-85928349D01*
X112290284Y-85956940D01*
X112196032Y-85985531D01*
X112049124Y-86000000D01*
X111950876Y-86000000D01*
X111803968Y-85985531D01*
X111709716Y-85956940D01*
X111615465Y-85928349D01*
X111615463Y-85928348D01*
X111441742Y-85835493D01*
X111289472Y-85710528D01*
X111164507Y-85558258D01*
X111071652Y-85384537D01*
X111068116Y-85372879D01*
X111043061Y-85290285D01*
X111014469Y-85196032D01*
X110995162Y-85000000D01*
X111014469Y-84803968D01*
X111047223Y-84695993D01*
X111071651Y-84615465D01*
X111075341Y-84608562D01*
X111164507Y-84441742D01*
X111289472Y-84289472D01*
X111441742Y-84164507D01*
X111615463Y-84071652D01*
X111615465Y-84071651D01*
X111709715Y-84043061D01*
X111803968Y-84014469D01*
X111950876Y-84000000D01*
X112049124Y-84000000D01*
X112196032Y-84014469D01*
X112196032Y-84014469D01*
G37*
G36*
X57696032Y-84014469D02*
G01*
X57790285Y-84043061D01*
X57884535Y-84071651D01*
X57884537Y-84071652D01*
X58058258Y-84164507D01*
X58210528Y-84289472D01*
X58335493Y-84441742D01*
X58424659Y-84608562D01*
X58428349Y-84615465D01*
X58452777Y-84695993D01*
X58485531Y-84803968D01*
X58504838Y-85000000D01*
X58485531Y-85196032D01*
X58456939Y-85290285D01*
X58431885Y-85372879D01*
X58428348Y-85384537D01*
X58335493Y-85558258D01*
X58210528Y-85710528D01*
X58058258Y-85835493D01*
X57884537Y-85928348D01*
X57884535Y-85928349D01*
X57790284Y-85956940D01*
X57696032Y-85985531D01*
X57549124Y-86000000D01*
X57450876Y-86000000D01*
X57303968Y-85985531D01*
X57209716Y-85956940D01*
X57115465Y-85928349D01*
X57115463Y-85928348D01*
X56941742Y-85835493D01*
X56789472Y-85710528D01*
X56664507Y-85558258D01*
X56571652Y-85384537D01*
X56568116Y-85372879D01*
X56543061Y-85290285D01*
X56514469Y-85196032D01*
X56495162Y-85000000D01*
X56514469Y-84803968D01*
X56547223Y-84695993D01*
X56571651Y-84615465D01*
X56575341Y-84608562D01*
X56664507Y-84441742D01*
X56789472Y-84289472D01*
X56941742Y-84164507D01*
X57115463Y-84071652D01*
X57115465Y-84071651D01*
X57209715Y-84043061D01*
X57303968Y-84014469D01*
X57450876Y-84000000D01*
X57549124Y-84000000D01*
X57696032Y-84014469D01*
X57696032Y-84014469D01*
G37*
G36*
X80196032Y-84014469D02*
G01*
X80290285Y-84043061D01*
X80384535Y-84071651D01*
X80384537Y-84071652D01*
X80558258Y-84164507D01*
X80710528Y-84289472D01*
X80835493Y-84441742D01*
X80924659Y-84608562D01*
X80928349Y-84615465D01*
X80952777Y-84695993D01*
X80985531Y-84803968D01*
X81004838Y-85000000D01*
X80985531Y-85196032D01*
X80956939Y-85290285D01*
X80931885Y-85372879D01*
X80928348Y-85384537D01*
X80835493Y-85558258D01*
X80710528Y-85710528D01*
X80558258Y-85835493D01*
X80384537Y-85928348D01*
X80384535Y-85928349D01*
X80290284Y-85956940D01*
X80196032Y-85985531D01*
X80049124Y-86000000D01*
X79950876Y-86000000D01*
X79803968Y-85985531D01*
X79709716Y-85956940D01*
X79615465Y-85928349D01*
X79615463Y-85928348D01*
X79441742Y-85835493D01*
X79289472Y-85710528D01*
X79164507Y-85558258D01*
X79071652Y-85384537D01*
X79068116Y-85372879D01*
X79043061Y-85290285D01*
X79014469Y-85196032D01*
X78995162Y-85000000D01*
X79014469Y-84803968D01*
X79047223Y-84695993D01*
X79071651Y-84615465D01*
X79075341Y-84608562D01*
X79164507Y-84441742D01*
X79289472Y-84289472D01*
X79441742Y-84164507D01*
X79615463Y-84071652D01*
X79615465Y-84071651D01*
X79709715Y-84043061D01*
X79803968Y-84014469D01*
X79950876Y-84000000D01*
X80049124Y-84000000D01*
X80196032Y-84014469D01*
X80196032Y-84014469D01*
G37*
G36*
X134696032Y-84014469D02*
G01*
X134790285Y-84043061D01*
X134884535Y-84071651D01*
X134884537Y-84071652D01*
X135058258Y-84164507D01*
X135210528Y-84289472D01*
X135335493Y-84441742D01*
X135424659Y-84608562D01*
X135428349Y-84615465D01*
X135452777Y-84695993D01*
X135485531Y-84803968D01*
X135504838Y-85000000D01*
X135485531Y-85196032D01*
X135456940Y-85290284D01*
X135431885Y-85372879D01*
X135428348Y-85384537D01*
X135335493Y-85558258D01*
X135210528Y-85710528D01*
X135058258Y-85835493D01*
X134884537Y-85928348D01*
X134884535Y-85928349D01*
X134790284Y-85956940D01*
X134696032Y-85985531D01*
X134549124Y-86000000D01*
X134450876Y-86000000D01*
X134303968Y-85985531D01*
X134209716Y-85956940D01*
X134115465Y-85928349D01*
X134115463Y-85928348D01*
X133941742Y-85835493D01*
X133789472Y-85710528D01*
X133664507Y-85558258D01*
X133571652Y-85384537D01*
X133568116Y-85372879D01*
X133543061Y-85290285D01*
X133514469Y-85196032D01*
X133495162Y-85000000D01*
X133514469Y-84803968D01*
X133547223Y-84695993D01*
X133571651Y-84615465D01*
X133575341Y-84608562D01*
X133664507Y-84441742D01*
X133789472Y-84289472D01*
X133941742Y-84164507D01*
X134115463Y-84071652D01*
X134115465Y-84071651D01*
X134209715Y-84043061D01*
X134303968Y-84014469D01*
X134450876Y-84000000D01*
X134549124Y-84000000D01*
X134696032Y-84014469D01*
X134696032Y-84014469D01*
G37*
G36*
X102780604Y-81074968D02*
G01*
X102955678Y-81147486D01*
X102955679Y-81147487D01*
X103113237Y-81252763D01*
X103247237Y-81386763D01*
X103335007Y-81518121D01*
X103352514Y-81544322D01*
X103374951Y-81598491D01*
X103425032Y-81719396D01*
X103462000Y-81905250D01*
X103462000Y-82094750D01*
X103425032Y-82280604D01*
X103388772Y-82368142D01*
X103352514Y-82455678D01*
X103352513Y-82455679D01*
X103247237Y-82613237D01*
X103113237Y-82747237D01*
X102981879Y-82835007D01*
X102955678Y-82852514D01*
X102868142Y-82888772D01*
X102780604Y-82925032D01*
X102594750Y-82962000D01*
X102405250Y-82962000D01*
X102219396Y-82925032D01*
X102131858Y-82888772D01*
X102044322Y-82852514D01*
X102018121Y-82835007D01*
X101886763Y-82747237D01*
X101752763Y-82613237D01*
X101647487Y-82455679D01*
X101647486Y-82455678D01*
X101611228Y-82368142D01*
X101574968Y-82280604D01*
X101538000Y-82094750D01*
X101538000Y-81905250D01*
X101574968Y-81719396D01*
X101625049Y-81598491D01*
X101647486Y-81544322D01*
X101664993Y-81518121D01*
X101752763Y-81386763D01*
X101886763Y-81252763D01*
X102044321Y-81147487D01*
X102044322Y-81147486D01*
X102219396Y-81074968D01*
X102405250Y-81038000D01*
X102594750Y-81038000D01*
X102780604Y-81074968D01*
X102780604Y-81074968D01*
G37*
G36*
X97780604Y-81074968D02*
G01*
X97955678Y-81147486D01*
X97955679Y-81147487D01*
X98113237Y-81252763D01*
X98247237Y-81386763D01*
X98335007Y-81518121D01*
X98352514Y-81544322D01*
X98374951Y-81598491D01*
X98425032Y-81719396D01*
X98462000Y-81905250D01*
X98462000Y-82094750D01*
X98425032Y-82280604D01*
X98388772Y-82368142D01*
X98352514Y-82455678D01*
X98352513Y-82455679D01*
X98247237Y-82613237D01*
X98113237Y-82747237D01*
X97981879Y-82835007D01*
X97955678Y-82852514D01*
X97868142Y-82888772D01*
X97780604Y-82925032D01*
X97594750Y-82962000D01*
X97405250Y-82962000D01*
X97219396Y-82925032D01*
X97131858Y-82888772D01*
X97044322Y-82852514D01*
X97018121Y-82835007D01*
X96886763Y-82747237D01*
X96752763Y-82613237D01*
X96647487Y-82455679D01*
X96647486Y-82455678D01*
X96611228Y-82368142D01*
X96574968Y-82280604D01*
X96538000Y-82094750D01*
X96538000Y-81905250D01*
X96574968Y-81719396D01*
X96625049Y-81598491D01*
X96647486Y-81544322D01*
X96664993Y-81518121D01*
X96752763Y-81386763D01*
X96886763Y-81252763D01*
X97044321Y-81147487D01*
X97044322Y-81147486D01*
X97219396Y-81074968D01*
X97405250Y-81038000D01*
X97594750Y-81038000D01*
X97780604Y-81074968D01*
X97780604Y-81074968D01*
G37*
G36*
X121977290Y-80525619D02*
G01*
X122041689Y-80538429D01*
X122223678Y-80613811D01*
X122387463Y-80723249D01*
X122526751Y-80862537D01*
X122636189Y-81026322D01*
X122711571Y-81208311D01*
X122724381Y-81272710D01*
X122747067Y-81386761D01*
X122750000Y-81401509D01*
X122750000Y-81598491D01*
X122711571Y-81791689D01*
X122636189Y-81973678D01*
X122526751Y-82137463D01*
X122387463Y-82276751D01*
X122223678Y-82386189D01*
X122041689Y-82461571D01*
X121977290Y-82474381D01*
X121848493Y-82500000D01*
X121651507Y-82500000D01*
X121522710Y-82474381D01*
X121458311Y-82461571D01*
X121276322Y-82386189D01*
X121112537Y-82276751D01*
X120973249Y-82137463D01*
X120863811Y-81973678D01*
X120788429Y-81791689D01*
X120750000Y-81598491D01*
X120750000Y-81401509D01*
X120752934Y-81386761D01*
X120775619Y-81272710D01*
X120788429Y-81208311D01*
X120863811Y-81026322D01*
X120973249Y-80862537D01*
X121112537Y-80723249D01*
X121276322Y-80613811D01*
X121458311Y-80538429D01*
X121522710Y-80525619D01*
X121651507Y-80500000D01*
X121848493Y-80500000D01*
X121977290Y-80525619D01*
X121977290Y-80525619D01*
G37*
G36*
X67477290Y-80525619D02*
G01*
X67541689Y-80538429D01*
X67723678Y-80613811D01*
X67887463Y-80723249D01*
X68026751Y-80862537D01*
X68136189Y-81026322D01*
X68211571Y-81208311D01*
X68224381Y-81272710D01*
X68247067Y-81386761D01*
X68250000Y-81401509D01*
X68250000Y-81598491D01*
X68211571Y-81791689D01*
X68136189Y-81973678D01*
X68026751Y-82137463D01*
X67887463Y-82276751D01*
X67723678Y-82386189D01*
X67541689Y-82461571D01*
X67477290Y-82474381D01*
X67348493Y-82500000D01*
X67151507Y-82500000D01*
X67022710Y-82474381D01*
X66958311Y-82461571D01*
X66776322Y-82386189D01*
X66612537Y-82276751D01*
X66473249Y-82137463D01*
X66363811Y-81973678D01*
X66288429Y-81791689D01*
X66250000Y-81598491D01*
X66250000Y-81401509D01*
X66252934Y-81386761D01*
X66275619Y-81272710D01*
X66288429Y-81208311D01*
X66363811Y-81026322D01*
X66473249Y-80862537D01*
X66612537Y-80723249D01*
X66776322Y-80613811D01*
X66958311Y-80538429D01*
X67022710Y-80525619D01*
X67151507Y-80500000D01*
X67348493Y-80500000D01*
X67477290Y-80525619D01*
X67477290Y-80525619D01*
G37*
G36*
X132977290Y-80525619D02*
G01*
X133041689Y-80538429D01*
X133223678Y-80613811D01*
X133387463Y-80723249D01*
X133526751Y-80862537D01*
X133636189Y-81026322D01*
X133711571Y-81208311D01*
X133724381Y-81272710D01*
X133747067Y-81386761D01*
X133750000Y-81401509D01*
X133750000Y-81598491D01*
X133711571Y-81791689D01*
X133636189Y-81973678D01*
X133526751Y-82137463D01*
X133387463Y-82276751D01*
X133223678Y-82386189D01*
X133041689Y-82461571D01*
X132977290Y-82474381D01*
X132848493Y-82500000D01*
X132651507Y-82500000D01*
X132522710Y-82474381D01*
X132458311Y-82461571D01*
X132276322Y-82386189D01*
X132112537Y-82276751D01*
X131973249Y-82137463D01*
X131863811Y-81973678D01*
X131788429Y-81791689D01*
X131750000Y-81598491D01*
X131750000Y-81401509D01*
X131752934Y-81386761D01*
X131775619Y-81272710D01*
X131788429Y-81208311D01*
X131863811Y-81026322D01*
X131973249Y-80862537D01*
X132112537Y-80723249D01*
X132276322Y-80613811D01*
X132458311Y-80538429D01*
X132522710Y-80525619D01*
X132651507Y-80500000D01*
X132848493Y-80500000D01*
X132977290Y-80525619D01*
X132977290Y-80525619D01*
G37*
G36*
X89977290Y-80525619D02*
G01*
X90041689Y-80538429D01*
X90223678Y-80613811D01*
X90387463Y-80723249D01*
X90526751Y-80862537D01*
X90636189Y-81026322D01*
X90711571Y-81208311D01*
X90724381Y-81272710D01*
X90747067Y-81386761D01*
X90750000Y-81401509D01*
X90750000Y-81598491D01*
X90711571Y-81791689D01*
X90636189Y-81973678D01*
X90526751Y-82137463D01*
X90387463Y-82276751D01*
X90223678Y-82386189D01*
X90041689Y-82461571D01*
X89977290Y-82474381D01*
X89848493Y-82500000D01*
X89651507Y-82500000D01*
X89522710Y-82474381D01*
X89458311Y-82461571D01*
X89276322Y-82386189D01*
X89112537Y-82276751D01*
X88973249Y-82137463D01*
X88863811Y-81973678D01*
X88788429Y-81791689D01*
X88750000Y-81598491D01*
X88750000Y-81401509D01*
X88752934Y-81386761D01*
X88775619Y-81272710D01*
X88788429Y-81208311D01*
X88863811Y-81026322D01*
X88973249Y-80862537D01*
X89112537Y-80723249D01*
X89276322Y-80613811D01*
X89458311Y-80538429D01*
X89522710Y-80525619D01*
X89651507Y-80500000D01*
X89848493Y-80500000D01*
X89977290Y-80525619D01*
X89977290Y-80525619D01*
G37*
G36*
X110477290Y-80525619D02*
G01*
X110541689Y-80538429D01*
X110723678Y-80613811D01*
X110887463Y-80723249D01*
X111026751Y-80862537D01*
X111136189Y-81026322D01*
X111211571Y-81208311D01*
X111224381Y-81272710D01*
X111247067Y-81386761D01*
X111250000Y-81401509D01*
X111250000Y-81598491D01*
X111211571Y-81791689D01*
X111136189Y-81973678D01*
X111026751Y-82137463D01*
X110887463Y-82276751D01*
X110723678Y-82386189D01*
X110541689Y-82461571D01*
X110477290Y-82474381D01*
X110348493Y-82500000D01*
X110151507Y-82500000D01*
X110022710Y-82474381D01*
X109958311Y-82461571D01*
X109776322Y-82386189D01*
X109612537Y-82276751D01*
X109473249Y-82137463D01*
X109363811Y-81973678D01*
X109288429Y-81791689D01*
X109250000Y-81598491D01*
X109250000Y-81401509D01*
X109252934Y-81386761D01*
X109275619Y-81272710D01*
X109288429Y-81208311D01*
X109363811Y-81026322D01*
X109473249Y-80862537D01*
X109612537Y-80723249D01*
X109776322Y-80613811D01*
X109958311Y-80538429D01*
X110022710Y-80525619D01*
X110151507Y-80500000D01*
X110348493Y-80500000D01*
X110477290Y-80525619D01*
X110477290Y-80525619D01*
G37*
G36*
X78477290Y-80525619D02*
G01*
X78541689Y-80538429D01*
X78723678Y-80613811D01*
X78887463Y-80723249D01*
X79026751Y-80862537D01*
X79136189Y-81026322D01*
X79211571Y-81208311D01*
X79224381Y-81272710D01*
X79247067Y-81386761D01*
X79250000Y-81401509D01*
X79250000Y-81598491D01*
X79211571Y-81791689D01*
X79136189Y-81973678D01*
X79026751Y-82137463D01*
X78887463Y-82276751D01*
X78723678Y-82386189D01*
X78541689Y-82461571D01*
X78477290Y-82474381D01*
X78348493Y-82500000D01*
X78151507Y-82500000D01*
X78022710Y-82474381D01*
X77958311Y-82461571D01*
X77776322Y-82386189D01*
X77612537Y-82276751D01*
X77473249Y-82137463D01*
X77363811Y-81973678D01*
X77288429Y-81791689D01*
X77250000Y-81598491D01*
X77250000Y-81401509D01*
X77252934Y-81386761D01*
X77275619Y-81272710D01*
X77288429Y-81208311D01*
X77363811Y-81026322D01*
X77473249Y-80862537D01*
X77612537Y-80723249D01*
X77776322Y-80613811D01*
X77958311Y-80538429D01*
X78022710Y-80525619D01*
X78151507Y-80500000D01*
X78348493Y-80500000D01*
X78477290Y-80525619D01*
X78477290Y-80525619D01*
G37*
G36*
X55977290Y-80525619D02*
G01*
X56041689Y-80538429D01*
X56223678Y-80613811D01*
X56387463Y-80723249D01*
X56526751Y-80862537D01*
X56636189Y-81026322D01*
X56711571Y-81208311D01*
X56724381Y-81272710D01*
X56747067Y-81386761D01*
X56750000Y-81401509D01*
X56750000Y-81598491D01*
X56711571Y-81791689D01*
X56636189Y-81973678D01*
X56526751Y-82137463D01*
X56387463Y-82276751D01*
X56223678Y-82386189D01*
X56041689Y-82461571D01*
X55977290Y-82474381D01*
X55848493Y-82500000D01*
X55651507Y-82500000D01*
X55522710Y-82474381D01*
X55458311Y-82461571D01*
X55276322Y-82386189D01*
X55112537Y-82276751D01*
X54973249Y-82137463D01*
X54863811Y-81973678D01*
X54788429Y-81791689D01*
X54750000Y-81598491D01*
X54750000Y-81401509D01*
X54752934Y-81386761D01*
X54775619Y-81272710D01*
X54788429Y-81208311D01*
X54863811Y-81026322D01*
X54973249Y-80862537D01*
X55112537Y-80723249D01*
X55276322Y-80613811D01*
X55458311Y-80538429D01*
X55522710Y-80525619D01*
X55651507Y-80500000D01*
X55848493Y-80500000D01*
X55977290Y-80525619D01*
X55977290Y-80525619D01*
G37*
G36*
X144477290Y-80525619D02*
G01*
X144541689Y-80538429D01*
X144723678Y-80613811D01*
X144887463Y-80723249D01*
X145026751Y-80862537D01*
X145136189Y-81026322D01*
X145211571Y-81208311D01*
X145224381Y-81272710D01*
X145247067Y-81386761D01*
X145250000Y-81401509D01*
X145250000Y-81598491D01*
X145211571Y-81791689D01*
X145136189Y-81973678D01*
X145026751Y-82137463D01*
X144887463Y-82276751D01*
X144723678Y-82386189D01*
X144541689Y-82461571D01*
X144477290Y-82474381D01*
X144348493Y-82500000D01*
X144151507Y-82500000D01*
X144022710Y-82474381D01*
X143958311Y-82461571D01*
X143776322Y-82386189D01*
X143612537Y-82276751D01*
X143473249Y-82137463D01*
X143363811Y-81973678D01*
X143288429Y-81791689D01*
X143250000Y-81598491D01*
X143250000Y-81401509D01*
X143252934Y-81386761D01*
X143275619Y-81272710D01*
X143288429Y-81208311D01*
X143363811Y-81026322D01*
X143473249Y-80862537D01*
X143612537Y-80723249D01*
X143776322Y-80613811D01*
X143958311Y-80538429D01*
X144022710Y-80525619D01*
X144151507Y-80500000D01*
X144348493Y-80500000D01*
X144477290Y-80525619D01*
X144477290Y-80525619D01*
G37*
G36*
X121977290Y-76025619D02*
G01*
X122041689Y-76038429D01*
X122223678Y-76113811D01*
X122387463Y-76223249D01*
X122526751Y-76362537D01*
X122636189Y-76526322D01*
X122711571Y-76708311D01*
X122750000Y-76901509D01*
X122750000Y-77098491D01*
X122711571Y-77291689D01*
X122636189Y-77473678D01*
X122526751Y-77637463D01*
X122387463Y-77776751D01*
X122223678Y-77886189D01*
X122041689Y-77961571D01*
X121977290Y-77974381D01*
X121848493Y-78000000D01*
X121651507Y-78000000D01*
X121522710Y-77974381D01*
X121458311Y-77961571D01*
X121276322Y-77886189D01*
X121112537Y-77776751D01*
X120973249Y-77637463D01*
X120863811Y-77473678D01*
X120788429Y-77291689D01*
X120750000Y-77098491D01*
X120750000Y-76901509D01*
X120788429Y-76708311D01*
X120863811Y-76526322D01*
X120973249Y-76362537D01*
X121112537Y-76223249D01*
X121276322Y-76113811D01*
X121458311Y-76038429D01*
X121522710Y-76025619D01*
X121651507Y-76000000D01*
X121848493Y-76000000D01*
X121977290Y-76025619D01*
X121977290Y-76025619D01*
G37*
G36*
X132977290Y-76025619D02*
G01*
X133041689Y-76038429D01*
X133223678Y-76113811D01*
X133387463Y-76223249D01*
X133526751Y-76362537D01*
X133636189Y-76526322D01*
X133711571Y-76708311D01*
X133750000Y-76901509D01*
X133750000Y-77098491D01*
X133711571Y-77291689D01*
X133636189Y-77473678D01*
X133526751Y-77637463D01*
X133387463Y-77776751D01*
X133223678Y-77886189D01*
X133041689Y-77961571D01*
X132977290Y-77974381D01*
X132848493Y-78000000D01*
X132651507Y-78000000D01*
X132522710Y-77974381D01*
X132458311Y-77961571D01*
X132276322Y-77886189D01*
X132112537Y-77776751D01*
X131973249Y-77637463D01*
X131863811Y-77473678D01*
X131788429Y-77291689D01*
X131750000Y-77098491D01*
X131750000Y-76901509D01*
X131788429Y-76708311D01*
X131863811Y-76526322D01*
X131973249Y-76362537D01*
X132112537Y-76223249D01*
X132276322Y-76113811D01*
X132458311Y-76038429D01*
X132522710Y-76025619D01*
X132651507Y-76000000D01*
X132848493Y-76000000D01*
X132977290Y-76025619D01*
X132977290Y-76025619D01*
G37*
G36*
X67477290Y-76025619D02*
G01*
X67541689Y-76038429D01*
X67723678Y-76113811D01*
X67887463Y-76223249D01*
X68026751Y-76362537D01*
X68136189Y-76526322D01*
X68211571Y-76708311D01*
X68250000Y-76901509D01*
X68250000Y-77098491D01*
X68211571Y-77291689D01*
X68136189Y-77473678D01*
X68026751Y-77637463D01*
X67887463Y-77776751D01*
X67723678Y-77886189D01*
X67541689Y-77961571D01*
X67477290Y-77974381D01*
X67348493Y-78000000D01*
X67151507Y-78000000D01*
X67022710Y-77974381D01*
X66958311Y-77961571D01*
X66776322Y-77886189D01*
X66612537Y-77776751D01*
X66473249Y-77637463D01*
X66363811Y-77473678D01*
X66288429Y-77291689D01*
X66250000Y-77098491D01*
X66250000Y-76901509D01*
X66288429Y-76708311D01*
X66363811Y-76526322D01*
X66473249Y-76362537D01*
X66612537Y-76223249D01*
X66776322Y-76113811D01*
X66958311Y-76038429D01*
X67022710Y-76025619D01*
X67151507Y-76000000D01*
X67348493Y-76000000D01*
X67477290Y-76025619D01*
X67477290Y-76025619D01*
G37*
G36*
X55977290Y-76025619D02*
G01*
X56041689Y-76038429D01*
X56223678Y-76113811D01*
X56387463Y-76223249D01*
X56526751Y-76362537D01*
X56636189Y-76526322D01*
X56711571Y-76708311D01*
X56750000Y-76901509D01*
X56750000Y-77098491D01*
X56711571Y-77291689D01*
X56636189Y-77473678D01*
X56526751Y-77637463D01*
X56387463Y-77776751D01*
X56223678Y-77886189D01*
X56041689Y-77961571D01*
X55977290Y-77974381D01*
X55848493Y-78000000D01*
X55651507Y-78000000D01*
X55522710Y-77974381D01*
X55458311Y-77961571D01*
X55276322Y-77886189D01*
X55112537Y-77776751D01*
X54973249Y-77637463D01*
X54863811Y-77473678D01*
X54788429Y-77291689D01*
X54750000Y-77098491D01*
X54750000Y-76901509D01*
X54788429Y-76708311D01*
X54863811Y-76526322D01*
X54973249Y-76362537D01*
X55112537Y-76223249D01*
X55276322Y-76113811D01*
X55458311Y-76038429D01*
X55522710Y-76025619D01*
X55651507Y-76000000D01*
X55848493Y-76000000D01*
X55977290Y-76025619D01*
X55977290Y-76025619D01*
G37*
G36*
X110477290Y-76025619D02*
G01*
X110541689Y-76038429D01*
X110723678Y-76113811D01*
X110887463Y-76223249D01*
X111026751Y-76362537D01*
X111136189Y-76526322D01*
X111211571Y-76708311D01*
X111250000Y-76901509D01*
X111250000Y-77098491D01*
X111211571Y-77291689D01*
X111136189Y-77473678D01*
X111026751Y-77637463D01*
X110887463Y-77776751D01*
X110723678Y-77886189D01*
X110541689Y-77961571D01*
X110477290Y-77974381D01*
X110348493Y-78000000D01*
X110151507Y-78000000D01*
X110022710Y-77974381D01*
X109958311Y-77961571D01*
X109776322Y-77886189D01*
X109612537Y-77776751D01*
X109473249Y-77637463D01*
X109363811Y-77473678D01*
X109288429Y-77291689D01*
X109250000Y-77098491D01*
X109250000Y-76901509D01*
X109288429Y-76708311D01*
X109363811Y-76526322D01*
X109473249Y-76362537D01*
X109612537Y-76223249D01*
X109776322Y-76113811D01*
X109958311Y-76038429D01*
X110022710Y-76025619D01*
X110151507Y-76000000D01*
X110348493Y-76000000D01*
X110477290Y-76025619D01*
X110477290Y-76025619D01*
G37*
G36*
X89977290Y-76025619D02*
G01*
X90041689Y-76038429D01*
X90223678Y-76113811D01*
X90387463Y-76223249D01*
X90526751Y-76362537D01*
X90636189Y-76526322D01*
X90711571Y-76708311D01*
X90750000Y-76901509D01*
X90750000Y-77098491D01*
X90711571Y-77291689D01*
X90636189Y-77473678D01*
X90526751Y-77637463D01*
X90387463Y-77776751D01*
X90223678Y-77886189D01*
X90041689Y-77961571D01*
X89977290Y-77974381D01*
X89848493Y-78000000D01*
X89651507Y-78000000D01*
X89522710Y-77974381D01*
X89458311Y-77961571D01*
X89276322Y-77886189D01*
X89112537Y-77776751D01*
X88973249Y-77637463D01*
X88863811Y-77473678D01*
X88788429Y-77291689D01*
X88750000Y-77098491D01*
X88750000Y-76901509D01*
X88788429Y-76708311D01*
X88863811Y-76526322D01*
X88973249Y-76362537D01*
X89112537Y-76223249D01*
X89276322Y-76113811D01*
X89458311Y-76038429D01*
X89522710Y-76025619D01*
X89651507Y-76000000D01*
X89848493Y-76000000D01*
X89977290Y-76025619D01*
X89977290Y-76025619D01*
G37*
G36*
X144477290Y-76025619D02*
G01*
X144541689Y-76038429D01*
X144723678Y-76113811D01*
X144887463Y-76223249D01*
X145026751Y-76362537D01*
X145136189Y-76526322D01*
X145211571Y-76708311D01*
X145250000Y-76901509D01*
X145250000Y-77098491D01*
X145211571Y-77291689D01*
X145136189Y-77473678D01*
X145026751Y-77637463D01*
X144887463Y-77776751D01*
X144723678Y-77886189D01*
X144541689Y-77961571D01*
X144477290Y-77974381D01*
X144348493Y-78000000D01*
X144151507Y-78000000D01*
X144022710Y-77974381D01*
X143958311Y-77961571D01*
X143776322Y-77886189D01*
X143612537Y-77776751D01*
X143473249Y-77637463D01*
X143363811Y-77473678D01*
X143288429Y-77291689D01*
X143250000Y-77098491D01*
X143250000Y-76901509D01*
X143288429Y-76708311D01*
X143363811Y-76526322D01*
X143473249Y-76362537D01*
X143612537Y-76223249D01*
X143776322Y-76113811D01*
X143958311Y-76038429D01*
X144022710Y-76025619D01*
X144151507Y-76000000D01*
X144348493Y-76000000D01*
X144477290Y-76025619D01*
X144477290Y-76025619D01*
G37*
G36*
X78477290Y-76025619D02*
G01*
X78541689Y-76038429D01*
X78723678Y-76113811D01*
X78887463Y-76223249D01*
X79026751Y-76362537D01*
X79136189Y-76526322D01*
X79211571Y-76708311D01*
X79250000Y-76901509D01*
X79250000Y-77098491D01*
X79211571Y-77291689D01*
X79136189Y-77473678D01*
X79026751Y-77637463D01*
X78887463Y-77776751D01*
X78723678Y-77886189D01*
X78541689Y-77961571D01*
X78477290Y-77974381D01*
X78348493Y-78000000D01*
X78151507Y-78000000D01*
X78022710Y-77974381D01*
X77958311Y-77961571D01*
X77776322Y-77886189D01*
X77612537Y-77776751D01*
X77473249Y-77637463D01*
X77363811Y-77473678D01*
X77288429Y-77291689D01*
X77250000Y-77098491D01*
X77250000Y-76901509D01*
X77288429Y-76708311D01*
X77363811Y-76526322D01*
X77473249Y-76362537D01*
X77612537Y-76223249D01*
X77776322Y-76113811D01*
X77958311Y-76038429D01*
X78022710Y-76025619D01*
X78151507Y-76000000D01*
X78348493Y-76000000D01*
X78477290Y-76025619D01*
X78477290Y-76025619D01*
G37*
G36*
X78477290Y-71525619D02*
G01*
X78541689Y-71538429D01*
X78723678Y-71613811D01*
X78887463Y-71723249D01*
X79026751Y-71862537D01*
X79136189Y-72026322D01*
X79211571Y-72208311D01*
X79211571Y-72208312D01*
X79250000Y-72401507D01*
X79250000Y-72598493D01*
X79224381Y-72727290D01*
X79211571Y-72791689D01*
X79136189Y-72973678D01*
X79026751Y-73137463D01*
X78887463Y-73276751D01*
X78723678Y-73386189D01*
X78541689Y-73461571D01*
X78477290Y-73474381D01*
X78348493Y-73500000D01*
X78151507Y-73500000D01*
X78022710Y-73474381D01*
X77958311Y-73461571D01*
X77776322Y-73386189D01*
X77612537Y-73276751D01*
X77473249Y-73137463D01*
X77363811Y-72973678D01*
X77288429Y-72791689D01*
X77275619Y-72727290D01*
X77250000Y-72598493D01*
X77250000Y-72401507D01*
X77288429Y-72208312D01*
X77288429Y-72208311D01*
X77363811Y-72026322D01*
X77473249Y-71862537D01*
X77612537Y-71723249D01*
X77776322Y-71613811D01*
X77958311Y-71538429D01*
X78022710Y-71525619D01*
X78151507Y-71500000D01*
X78348493Y-71500000D01*
X78477290Y-71525619D01*
X78477290Y-71525619D01*
G37*
G36*
X132977290Y-71525619D02*
G01*
X133041689Y-71538429D01*
X133223678Y-71613811D01*
X133387463Y-71723249D01*
X133526751Y-71862537D01*
X133636189Y-72026322D01*
X133711571Y-72208311D01*
X133711571Y-72208312D01*
X133750000Y-72401507D01*
X133750000Y-72598493D01*
X133724381Y-72727290D01*
X133711571Y-72791689D01*
X133636189Y-72973678D01*
X133526751Y-73137463D01*
X133387463Y-73276751D01*
X133223678Y-73386189D01*
X133041689Y-73461571D01*
X132977290Y-73474381D01*
X132848493Y-73500000D01*
X132651507Y-73500000D01*
X132522710Y-73474381D01*
X132458311Y-73461571D01*
X132276322Y-73386189D01*
X132112537Y-73276751D01*
X131973249Y-73137463D01*
X131863811Y-72973678D01*
X131788429Y-72791689D01*
X131775619Y-72727290D01*
X131750000Y-72598493D01*
X131750000Y-72401507D01*
X131788429Y-72208312D01*
X131788429Y-72208311D01*
X131863811Y-72026322D01*
X131973249Y-71862537D01*
X132112537Y-71723249D01*
X132276322Y-71613811D01*
X132458311Y-71538429D01*
X132522710Y-71525619D01*
X132651507Y-71500000D01*
X132848493Y-71500000D01*
X132977290Y-71525619D01*
X132977290Y-71525619D01*
G37*
G36*
X67477290Y-71525619D02*
G01*
X67541689Y-71538429D01*
X67723678Y-71613811D01*
X67887463Y-71723249D01*
X68026751Y-71862537D01*
X68136189Y-72026322D01*
X68211571Y-72208311D01*
X68211571Y-72208312D01*
X68250000Y-72401507D01*
X68250000Y-72598493D01*
X68224381Y-72727290D01*
X68211571Y-72791689D01*
X68136189Y-72973678D01*
X68026751Y-73137463D01*
X67887463Y-73276751D01*
X67723678Y-73386189D01*
X67541689Y-73461571D01*
X67477290Y-73474381D01*
X67348493Y-73500000D01*
X67151507Y-73500000D01*
X67022710Y-73474381D01*
X66958311Y-73461571D01*
X66776322Y-73386189D01*
X66612537Y-73276751D01*
X66473249Y-73137463D01*
X66363811Y-72973678D01*
X66288429Y-72791689D01*
X66275619Y-72727290D01*
X66250000Y-72598493D01*
X66250000Y-72401507D01*
X66288429Y-72208312D01*
X66288429Y-72208311D01*
X66363811Y-72026322D01*
X66473249Y-71862537D01*
X66612537Y-71723249D01*
X66776322Y-71613811D01*
X66958311Y-71538429D01*
X67022710Y-71525619D01*
X67151507Y-71500000D01*
X67348493Y-71500000D01*
X67477290Y-71525619D01*
X67477290Y-71525619D01*
G37*
G36*
X55977290Y-71525619D02*
G01*
X56041689Y-71538429D01*
X56223678Y-71613811D01*
X56387463Y-71723249D01*
X56526751Y-71862537D01*
X56636189Y-72026322D01*
X56711571Y-72208311D01*
X56711571Y-72208312D01*
X56750000Y-72401507D01*
X56750000Y-72598493D01*
X56724381Y-72727290D01*
X56711571Y-72791689D01*
X56636189Y-72973678D01*
X56526751Y-73137463D01*
X56387463Y-73276751D01*
X56223678Y-73386189D01*
X56041689Y-73461571D01*
X55977290Y-73474381D01*
X55848493Y-73500000D01*
X55651507Y-73500000D01*
X55522710Y-73474381D01*
X55458311Y-73461571D01*
X55276322Y-73386189D01*
X55112537Y-73276751D01*
X54973249Y-73137463D01*
X54863811Y-72973678D01*
X54788429Y-72791689D01*
X54775619Y-72727290D01*
X54750000Y-72598493D01*
X54750000Y-72401507D01*
X54788429Y-72208312D01*
X54788429Y-72208311D01*
X54863811Y-72026322D01*
X54973249Y-71862537D01*
X55112537Y-71723249D01*
X55276322Y-71613811D01*
X55458311Y-71538429D01*
X55522710Y-71525619D01*
X55651507Y-71500000D01*
X55848493Y-71500000D01*
X55977290Y-71525619D01*
X55977290Y-71525619D01*
G37*
G36*
X89977290Y-71525619D02*
G01*
X90041689Y-71538429D01*
X90223678Y-71613811D01*
X90387463Y-71723249D01*
X90526751Y-71862537D01*
X90636189Y-72026322D01*
X90711571Y-72208311D01*
X90711571Y-72208312D01*
X90750000Y-72401507D01*
X90750000Y-72598493D01*
X90724381Y-72727290D01*
X90711571Y-72791689D01*
X90636189Y-72973678D01*
X90526751Y-73137463D01*
X90387463Y-73276751D01*
X90223678Y-73386189D01*
X90041689Y-73461571D01*
X89977290Y-73474381D01*
X89848493Y-73500000D01*
X89651507Y-73500000D01*
X89522710Y-73474381D01*
X89458311Y-73461571D01*
X89276322Y-73386189D01*
X89112537Y-73276751D01*
X88973249Y-73137463D01*
X88863811Y-72973678D01*
X88788429Y-72791689D01*
X88775619Y-72727290D01*
X88750000Y-72598493D01*
X88750000Y-72401507D01*
X88788429Y-72208312D01*
X88788429Y-72208311D01*
X88863811Y-72026322D01*
X88973249Y-71862537D01*
X89112537Y-71723249D01*
X89276322Y-71613811D01*
X89458311Y-71538429D01*
X89522710Y-71525619D01*
X89651507Y-71500000D01*
X89848493Y-71500000D01*
X89977290Y-71525619D01*
X89977290Y-71525619D01*
G37*
G36*
X110477290Y-71525619D02*
G01*
X110541689Y-71538429D01*
X110723678Y-71613811D01*
X110887463Y-71723249D01*
X111026751Y-71862537D01*
X111136189Y-72026322D01*
X111211571Y-72208311D01*
X111211571Y-72208312D01*
X111250000Y-72401507D01*
X111250000Y-72598493D01*
X111224381Y-72727290D01*
X111211571Y-72791689D01*
X111136189Y-72973678D01*
X111026751Y-73137463D01*
X110887463Y-73276751D01*
X110723678Y-73386189D01*
X110541689Y-73461571D01*
X110477290Y-73474381D01*
X110348493Y-73500000D01*
X110151507Y-73500000D01*
X110022710Y-73474381D01*
X109958311Y-73461571D01*
X109776322Y-73386189D01*
X109612537Y-73276751D01*
X109473249Y-73137463D01*
X109363811Y-72973678D01*
X109288429Y-72791689D01*
X109275619Y-72727290D01*
X109250000Y-72598493D01*
X109250000Y-72401507D01*
X109288429Y-72208312D01*
X109288429Y-72208311D01*
X109363811Y-72026322D01*
X109473249Y-71862537D01*
X109612537Y-71723249D01*
X109776322Y-71613811D01*
X109958311Y-71538429D01*
X110022710Y-71525619D01*
X110151507Y-71500000D01*
X110348493Y-71500000D01*
X110477290Y-71525619D01*
X110477290Y-71525619D01*
G37*
G36*
X144477290Y-71525619D02*
G01*
X144541689Y-71538429D01*
X144723678Y-71613811D01*
X144887463Y-71723249D01*
X145026751Y-71862537D01*
X145136189Y-72026322D01*
X145211571Y-72208311D01*
X145211571Y-72208312D01*
X145250000Y-72401507D01*
X145250000Y-72598493D01*
X145224381Y-72727290D01*
X145211571Y-72791689D01*
X145136189Y-72973678D01*
X145026751Y-73137463D01*
X144887463Y-73276751D01*
X144723678Y-73386189D01*
X144541689Y-73461571D01*
X144477290Y-73474381D01*
X144348493Y-73500000D01*
X144151507Y-73500000D01*
X144022710Y-73474381D01*
X143958311Y-73461571D01*
X143776322Y-73386189D01*
X143612537Y-73276751D01*
X143473249Y-73137463D01*
X143363811Y-72973678D01*
X143288429Y-72791689D01*
X143275619Y-72727290D01*
X143250000Y-72598493D01*
X143250000Y-72401507D01*
X143288429Y-72208312D01*
X143288429Y-72208311D01*
X143363811Y-72026322D01*
X143473249Y-71862537D01*
X143612537Y-71723249D01*
X143776322Y-71613811D01*
X143958311Y-71538429D01*
X144022710Y-71525619D01*
X144151507Y-71500000D01*
X144348493Y-71500000D01*
X144477290Y-71525619D01*
X144477290Y-71525619D01*
G37*
G36*
X121977290Y-71525619D02*
G01*
X122041689Y-71538429D01*
X122223678Y-71613811D01*
X122387463Y-71723249D01*
X122526751Y-71862537D01*
X122636189Y-72026322D01*
X122711571Y-72208311D01*
X122711571Y-72208312D01*
X122750000Y-72401507D01*
X122750000Y-72598493D01*
X122724381Y-72727290D01*
X122711571Y-72791689D01*
X122636189Y-72973678D01*
X122526751Y-73137463D01*
X122387463Y-73276751D01*
X122223678Y-73386189D01*
X122041689Y-73461571D01*
X121977290Y-73474381D01*
X121848493Y-73500000D01*
X121651507Y-73500000D01*
X121522710Y-73474381D01*
X121458311Y-73461571D01*
X121276322Y-73386189D01*
X121112537Y-73276751D01*
X120973249Y-73137463D01*
X120863811Y-72973678D01*
X120788429Y-72791689D01*
X120775619Y-72727290D01*
X120750000Y-72598493D01*
X120750000Y-72401507D01*
X120788429Y-72208312D01*
X120788429Y-72208311D01*
X120863811Y-72026322D01*
X120973249Y-71862537D01*
X121112537Y-71723249D01*
X121276322Y-71613811D01*
X121458311Y-71538429D01*
X121522710Y-71525619D01*
X121651507Y-71500000D01*
X121848493Y-71500000D01*
X121977290Y-71525619D01*
X121977290Y-71525619D01*
G37*
G36*
X102780604Y-71074968D02*
G01*
X102955678Y-71147486D01*
X102955679Y-71147487D01*
X103113237Y-71252763D01*
X103247237Y-71386763D01*
X103322899Y-71500000D01*
X103352514Y-71544322D01*
X103381297Y-71613811D01*
X103425032Y-71719396D01*
X103462000Y-71905250D01*
X103462000Y-72094750D01*
X103425032Y-72280604D01*
X103388772Y-72368142D01*
X103352514Y-72455678D01*
X103352513Y-72455679D01*
X103247237Y-72613237D01*
X103113237Y-72747237D01*
X102981879Y-72835007D01*
X102955678Y-72852514D01*
X102780604Y-72925032D01*
X102594750Y-72962000D01*
X102405250Y-72962000D01*
X102219396Y-72925032D01*
X102044322Y-72852514D01*
X102018121Y-72835007D01*
X101886763Y-72747237D01*
X101752763Y-72613237D01*
X101647487Y-72455679D01*
X101647486Y-72455678D01*
X101611228Y-72368142D01*
X101574968Y-72280604D01*
X101538000Y-72094750D01*
X101538000Y-71905250D01*
X101574968Y-71719396D01*
X101618703Y-71613811D01*
X101647486Y-71544322D01*
X101677101Y-71500000D01*
X101752763Y-71386763D01*
X101886763Y-71252763D01*
X102044321Y-71147487D01*
X102044322Y-71147486D01*
X102131858Y-71111228D01*
X102219396Y-71074968D01*
X102405250Y-71038000D01*
X102594750Y-71038000D01*
X102780604Y-71074968D01*
X102780604Y-71074968D01*
G37*
G36*
X97780604Y-71074968D02*
G01*
X97955678Y-71147486D01*
X97955679Y-71147487D01*
X98113237Y-71252763D01*
X98247237Y-71386763D01*
X98322899Y-71500000D01*
X98352514Y-71544322D01*
X98381297Y-71613811D01*
X98425032Y-71719396D01*
X98462000Y-71905250D01*
X98462000Y-72094750D01*
X98425032Y-72280604D01*
X98388772Y-72368142D01*
X98352514Y-72455678D01*
X98352513Y-72455679D01*
X98247237Y-72613237D01*
X98113237Y-72747237D01*
X97981879Y-72835007D01*
X97955678Y-72852514D01*
X97780604Y-72925032D01*
X97594750Y-72962000D01*
X97405250Y-72962000D01*
X97219396Y-72925032D01*
X97044322Y-72852514D01*
X97018121Y-72835007D01*
X96886763Y-72747237D01*
X96752763Y-72613237D01*
X96647487Y-72455679D01*
X96647486Y-72455678D01*
X96574968Y-72280604D01*
X96538000Y-72094750D01*
X96538000Y-71905250D01*
X96574968Y-71719396D01*
X96618703Y-71613811D01*
X96647486Y-71544322D01*
X96677101Y-71500000D01*
X96752763Y-71386763D01*
X96886763Y-71252763D01*
X97044321Y-71147487D01*
X97044322Y-71147486D01*
X97131858Y-71111228D01*
X97219396Y-71074968D01*
X97405250Y-71038000D01*
X97594750Y-71038000D01*
X97780604Y-71074968D01*
X97780604Y-71074968D01*
G37*
G36*
X88227290Y-68025619D02*
G01*
X88291689Y-68038429D01*
X88473678Y-68113811D01*
X88637463Y-68223249D01*
X88776751Y-68362537D01*
X88886189Y-68526322D01*
X88961571Y-68708311D01*
X89000000Y-68901509D01*
X89000000Y-69098491D01*
X88961571Y-69291689D01*
X88886189Y-69473678D01*
X88776751Y-69637463D01*
X88637463Y-69776751D01*
X88473678Y-69886189D01*
X88291689Y-69961571D01*
X88227290Y-69974381D01*
X88098493Y-70000000D01*
X87901507Y-70000000D01*
X87772710Y-69974381D01*
X87708311Y-69961571D01*
X87526322Y-69886189D01*
X87362537Y-69776751D01*
X87223249Y-69637463D01*
X87113811Y-69473678D01*
X87038429Y-69291689D01*
X87000000Y-69098491D01*
X87000000Y-68901509D01*
X87038429Y-68708311D01*
X87113811Y-68526322D01*
X87223249Y-68362537D01*
X87362537Y-68223249D01*
X87526322Y-68113811D01*
X87708311Y-68038429D01*
X87772710Y-68025619D01*
X87901507Y-68000000D01*
X88098493Y-68000000D01*
X88227290Y-68025619D01*
X88227290Y-68025619D01*
G37*
G36*
X57727290Y-68025619D02*
G01*
X57791689Y-68038429D01*
X57973678Y-68113811D01*
X58137463Y-68223249D01*
X58276751Y-68362537D01*
X58386189Y-68526322D01*
X58461571Y-68708311D01*
X58500000Y-68901509D01*
X58500000Y-69098491D01*
X58461571Y-69291689D01*
X58386189Y-69473678D01*
X58276751Y-69637463D01*
X58137463Y-69776751D01*
X57973678Y-69886189D01*
X57791689Y-69961571D01*
X57727290Y-69974381D01*
X57598493Y-70000000D01*
X57401507Y-70000000D01*
X57272710Y-69974381D01*
X57208311Y-69961571D01*
X57026322Y-69886189D01*
X56862537Y-69776751D01*
X56723249Y-69637463D01*
X56613811Y-69473678D01*
X56538429Y-69291689D01*
X56500000Y-69098491D01*
X56500000Y-68901509D01*
X56538429Y-68708311D01*
X56613811Y-68526322D01*
X56723249Y-68362537D01*
X56862537Y-68223249D01*
X57026322Y-68113811D01*
X57208311Y-68038429D01*
X57272710Y-68025619D01*
X57401507Y-68000000D01*
X57598493Y-68000000D01*
X57727290Y-68025619D01*
X57727290Y-68025619D01*
G37*
G36*
X65727290Y-68025619D02*
G01*
X65791689Y-68038429D01*
X65973678Y-68113811D01*
X66137463Y-68223249D01*
X66276751Y-68362537D01*
X66386189Y-68526322D01*
X66461571Y-68708311D01*
X66500000Y-68901509D01*
X66500000Y-69098491D01*
X66461571Y-69291689D01*
X66386189Y-69473678D01*
X66276751Y-69637463D01*
X66137463Y-69776751D01*
X65973678Y-69886189D01*
X65791689Y-69961571D01*
X65727290Y-69974381D01*
X65598493Y-70000000D01*
X65401507Y-70000000D01*
X65272710Y-69974381D01*
X65208311Y-69961571D01*
X65026322Y-69886189D01*
X64862537Y-69776751D01*
X64723249Y-69637463D01*
X64613811Y-69473678D01*
X64538429Y-69291689D01*
X64500000Y-69098491D01*
X64500000Y-68901509D01*
X64538429Y-68708311D01*
X64613811Y-68526322D01*
X64723249Y-68362537D01*
X64862537Y-68223249D01*
X65026322Y-68113811D01*
X65208311Y-68038429D01*
X65272710Y-68025619D01*
X65401507Y-68000000D01*
X65598493Y-68000000D01*
X65727290Y-68025619D01*
X65727290Y-68025619D01*
G37*
G36*
X80227290Y-68025619D02*
G01*
X80291689Y-68038429D01*
X80473678Y-68113811D01*
X80637463Y-68223249D01*
X80776751Y-68362537D01*
X80886189Y-68526322D01*
X80961571Y-68708311D01*
X81000000Y-68901509D01*
X81000000Y-69098491D01*
X80961571Y-69291689D01*
X80886189Y-69473678D01*
X80776751Y-69637463D01*
X80637463Y-69776751D01*
X80473678Y-69886189D01*
X80291689Y-69961571D01*
X80227290Y-69974381D01*
X80098493Y-70000000D01*
X79901507Y-70000000D01*
X79772710Y-69974381D01*
X79708311Y-69961571D01*
X79526322Y-69886189D01*
X79362537Y-69776751D01*
X79223249Y-69637463D01*
X79113811Y-69473678D01*
X79038429Y-69291689D01*
X79000000Y-69098491D01*
X79000000Y-68901509D01*
X79038429Y-68708311D01*
X79113811Y-68526322D01*
X79223249Y-68362537D01*
X79362537Y-68223249D01*
X79526322Y-68113811D01*
X79708311Y-68038429D01*
X79772710Y-68025619D01*
X79901507Y-68000000D01*
X80098493Y-68000000D01*
X80227290Y-68025619D01*
X80227290Y-68025619D01*
G37*
G36*
X112227290Y-68025619D02*
G01*
X112291689Y-68038429D01*
X112473678Y-68113811D01*
X112637463Y-68223249D01*
X112776751Y-68362537D01*
X112886189Y-68526322D01*
X112961571Y-68708311D01*
X113000000Y-68901509D01*
X113000000Y-69098491D01*
X112961571Y-69291689D01*
X112886189Y-69473678D01*
X112776751Y-69637463D01*
X112637463Y-69776751D01*
X112473678Y-69886189D01*
X112291689Y-69961571D01*
X112227290Y-69974381D01*
X112098493Y-70000000D01*
X111901507Y-70000000D01*
X111772710Y-69974381D01*
X111708311Y-69961571D01*
X111526322Y-69886189D01*
X111362537Y-69776751D01*
X111223249Y-69637463D01*
X111113811Y-69473678D01*
X111038429Y-69291689D01*
X111000000Y-69098491D01*
X111000000Y-68901509D01*
X111038429Y-68708311D01*
X111113811Y-68526322D01*
X111223249Y-68362537D01*
X111362537Y-68223249D01*
X111526322Y-68113811D01*
X111708311Y-68038429D01*
X111772710Y-68025619D01*
X111901507Y-68000000D01*
X112098493Y-68000000D01*
X112227290Y-68025619D01*
X112227290Y-68025619D01*
G37*
G36*
X120227290Y-68025619D02*
G01*
X120291689Y-68038429D01*
X120473678Y-68113811D01*
X120637463Y-68223249D01*
X120776751Y-68362537D01*
X120886189Y-68526322D01*
X120961571Y-68708311D01*
X121000000Y-68901509D01*
X121000000Y-69098491D01*
X120961571Y-69291689D01*
X120886189Y-69473678D01*
X120776751Y-69637463D01*
X120637463Y-69776751D01*
X120473678Y-69886189D01*
X120291689Y-69961571D01*
X120227290Y-69974381D01*
X120098493Y-70000000D01*
X119901507Y-70000000D01*
X119772710Y-69974381D01*
X119708311Y-69961571D01*
X119526322Y-69886189D01*
X119362537Y-69776751D01*
X119223249Y-69637463D01*
X119113811Y-69473678D01*
X119038429Y-69291689D01*
X119000000Y-69098491D01*
X119000000Y-68901509D01*
X119038429Y-68708311D01*
X119113811Y-68526322D01*
X119223249Y-68362537D01*
X119362537Y-68223249D01*
X119526322Y-68113811D01*
X119708311Y-68038429D01*
X119772710Y-68025619D01*
X119901507Y-68000000D01*
X120098493Y-68000000D01*
X120227290Y-68025619D01*
X120227290Y-68025619D01*
G37*
G36*
X134727290Y-68025619D02*
G01*
X134791689Y-68038429D01*
X134973678Y-68113811D01*
X135137463Y-68223249D01*
X135276751Y-68362537D01*
X135386189Y-68526322D01*
X135461571Y-68708311D01*
X135500000Y-68901509D01*
X135500000Y-69098491D01*
X135461571Y-69291689D01*
X135386189Y-69473678D01*
X135276751Y-69637463D01*
X135137463Y-69776751D01*
X134973678Y-69886189D01*
X134791689Y-69961571D01*
X134727290Y-69974381D01*
X134598493Y-70000000D01*
X134401507Y-70000000D01*
X134272710Y-69974381D01*
X134208311Y-69961571D01*
X134026322Y-69886189D01*
X133862537Y-69776751D01*
X133723249Y-69637463D01*
X133613811Y-69473678D01*
X133538429Y-69291689D01*
X133500000Y-69098491D01*
X133500000Y-68901509D01*
X133538429Y-68708311D01*
X133613811Y-68526322D01*
X133723249Y-68362537D01*
X133862537Y-68223249D01*
X134026322Y-68113811D01*
X134208311Y-68038429D01*
X134272710Y-68025619D01*
X134401507Y-68000000D01*
X134598493Y-68000000D01*
X134727290Y-68025619D01*
X134727290Y-68025619D01*
G37*
G36*
X142727290Y-68025619D02*
G01*
X142791689Y-68038429D01*
X142973678Y-68113811D01*
X143137463Y-68223249D01*
X143276751Y-68362537D01*
X143386189Y-68526322D01*
X143461571Y-68708311D01*
X143500000Y-68901509D01*
X143500000Y-69098491D01*
X143461571Y-69291689D01*
X143386189Y-69473678D01*
X143276751Y-69637463D01*
X143137463Y-69776751D01*
X142973678Y-69886189D01*
X142791689Y-69961571D01*
X142727290Y-69974381D01*
X142598493Y-70000000D01*
X142401507Y-70000000D01*
X142272710Y-69974381D01*
X142208311Y-69961571D01*
X142026322Y-69886189D01*
X141862537Y-69776751D01*
X141723249Y-69637463D01*
X141613811Y-69473678D01*
X141538429Y-69291689D01*
X141500000Y-69098491D01*
X141500000Y-68901509D01*
X141538429Y-68708311D01*
X141613811Y-68526322D01*
X141723249Y-68362537D01*
X141862537Y-68223249D01*
X142026322Y-68113811D01*
X142208311Y-68038429D01*
X142272710Y-68025619D01*
X142401507Y-68000000D01*
X142598493Y-68000000D01*
X142727290Y-68025619D01*
X142727290Y-68025619D01*
G37*
G36*
X61727290Y-67025619D02*
G01*
X61791689Y-67038429D01*
X61973678Y-67113811D01*
X62137463Y-67223249D01*
X62276751Y-67362537D01*
X62386189Y-67526322D01*
X62461571Y-67708311D01*
X62500000Y-67901509D01*
X62500000Y-68098491D01*
X62461571Y-68291689D01*
X62386189Y-68473678D01*
X62276751Y-68637463D01*
X62137463Y-68776751D01*
X61973678Y-68886189D01*
X61791689Y-68961571D01*
X61727290Y-68974381D01*
X61598493Y-69000000D01*
X61401507Y-69000000D01*
X61272710Y-68974381D01*
X61208311Y-68961571D01*
X61026322Y-68886189D01*
X60862537Y-68776751D01*
X60723249Y-68637463D01*
X60613811Y-68473678D01*
X60538429Y-68291689D01*
X60500000Y-68098491D01*
X60500000Y-67901509D01*
X60538429Y-67708311D01*
X60613811Y-67526322D01*
X60723249Y-67362537D01*
X60862537Y-67223249D01*
X61026322Y-67113811D01*
X61208311Y-67038429D01*
X61272710Y-67025619D01*
X61401507Y-67000000D01*
X61598493Y-67000000D01*
X61727290Y-67025619D01*
X61727290Y-67025619D01*
G37*
G36*
X84227290Y-67025619D02*
G01*
X84291689Y-67038429D01*
X84473678Y-67113811D01*
X84637463Y-67223249D01*
X84776751Y-67362537D01*
X84886189Y-67526322D01*
X84961571Y-67708311D01*
X85000000Y-67901509D01*
X85000000Y-68098491D01*
X84961571Y-68291689D01*
X84886189Y-68473678D01*
X84776751Y-68637463D01*
X84637463Y-68776751D01*
X84473678Y-68886189D01*
X84291689Y-68961571D01*
X84227290Y-68974381D01*
X84098493Y-69000000D01*
X83901507Y-69000000D01*
X83772710Y-68974381D01*
X83708311Y-68961571D01*
X83526322Y-68886189D01*
X83362537Y-68776751D01*
X83223249Y-68637463D01*
X83113811Y-68473678D01*
X83038429Y-68291689D01*
X83000000Y-68098491D01*
X83000000Y-67901509D01*
X83038429Y-67708311D01*
X83113811Y-67526322D01*
X83223249Y-67362537D01*
X83362537Y-67223249D01*
X83526322Y-67113811D01*
X83708311Y-67038429D01*
X83772710Y-67025619D01*
X83901507Y-67000000D01*
X84098493Y-67000000D01*
X84227290Y-67025619D01*
X84227290Y-67025619D01*
G37*
G36*
X116227290Y-67025619D02*
G01*
X116291689Y-67038429D01*
X116473678Y-67113811D01*
X116637463Y-67223249D01*
X116776751Y-67362537D01*
X116886189Y-67526322D01*
X116961571Y-67708311D01*
X117000000Y-67901509D01*
X117000000Y-68098491D01*
X116961571Y-68291689D01*
X116886189Y-68473678D01*
X116776751Y-68637463D01*
X116637463Y-68776751D01*
X116473678Y-68886189D01*
X116291689Y-68961571D01*
X116227290Y-68974381D01*
X116098493Y-69000000D01*
X115901507Y-69000000D01*
X115772710Y-68974381D01*
X115708311Y-68961571D01*
X115526322Y-68886189D01*
X115362537Y-68776751D01*
X115223249Y-68637463D01*
X115113811Y-68473678D01*
X115038429Y-68291689D01*
X115000000Y-68098491D01*
X115000000Y-67901509D01*
X115038429Y-67708311D01*
X115113811Y-67526322D01*
X115223249Y-67362537D01*
X115362537Y-67223249D01*
X115526322Y-67113811D01*
X115708311Y-67038429D01*
X115772710Y-67025619D01*
X115901507Y-67000000D01*
X116098493Y-67000000D01*
X116227290Y-67025619D01*
X116227290Y-67025619D01*
G37*
G36*
X138727290Y-67025619D02*
G01*
X138791689Y-67038429D01*
X138973678Y-67113811D01*
X139137463Y-67223249D01*
X139276751Y-67362537D01*
X139386189Y-67526322D01*
X139461571Y-67708311D01*
X139500000Y-67901509D01*
X139500000Y-68098491D01*
X139461571Y-68291689D01*
X139386189Y-68473678D01*
X139276751Y-68637463D01*
X139137463Y-68776751D01*
X138973678Y-68886189D01*
X138791689Y-68961571D01*
X138727290Y-68974381D01*
X138598493Y-69000000D01*
X138401507Y-69000000D01*
X138272710Y-68974381D01*
X138208311Y-68961571D01*
X138026322Y-68886189D01*
X137862537Y-68776751D01*
X137723249Y-68637463D01*
X137613811Y-68473678D01*
X137538429Y-68291689D01*
X137500000Y-68098491D01*
X137500000Y-67901509D01*
X137538429Y-67708311D01*
X137613811Y-67526322D01*
X137723249Y-67362537D01*
X137862537Y-67223249D01*
X138026322Y-67113811D01*
X138208311Y-67038429D01*
X138272710Y-67025619D01*
X138401507Y-67000000D01*
X138598493Y-67000000D01*
X138727290Y-67025619D01*
X138727290Y-67025619D01*
G37*
M02*
